<?xml version="1.0" encoding="utf-8" standalone="no"?>
<!DOCTYPE svg PUBLIC "-//W3C//DTD SVG 1.1//EN"
  "http://www.w3.org/Graphics/SVG/1.1/DTD/svg11.dtd">
<svg xmlns:xlink="http://www.w3.org/1999/xlink" width="460.8pt" height="345.6pt" viewBox="0 0 460.8 345.6" xmlns="http://www.w3.org/2000/svg" version="1.1">
 <metadata>
  <rdf:RDF xmlns:dc="http://purl.org/dc/elements/1.1/" xmlns:cc="http://creativecommons.org/ns#" xmlns:rdf="http://www.w3.org/1999/02/22-rdf-syntax-ns#">
   <cc:Work>
    <dc:type rdf:resource="http://purl.org/dc/dcmitype/StillImage"/>
    <dc:date>2022-11-24T14:28:05.812577</dc:date>
    <dc:format>image/svg+xml</dc:format>
    <dc:creator>
     <cc:Agent>
      <dc:title>Matplotlib v3.6.1, https://matplotlib.org/</dc:title>
     </cc:Agent>
    </dc:creator>
   </cc:Work>
  </rdf:RDF>
 </metadata>
 <defs>
  <style type="text/css">*{stroke-linejoin: round; stroke-linecap: butt}</style>
 </defs>
 <g id="figure_1">
  <g id="patch_1">
   <path d="M 0 345.6 
L 460.8 345.6 
L 460.8 0 
L 0 0 
z
" style="fill: #ffffff"/>
  </g>
  <g id="axes_1">
   <g id="patch_2">
    <path d="M 57.6 307.584 
L 414.72 307.584 
L 414.72 41.472 
L 57.6 41.472 
z
" style="fill: #ffffff"/>
   </g>
   <g id="matplotlib.axis_1">
    <g id="xtick_1">
     <g id="line2d_1">
      <path d="M 57.6 307.584 
L 57.6 41.472 
" clip-path="url(#pae69140b00)" style="fill: none; stroke: #b0b0b0; stroke-width: 0.8; stroke-linecap: square"/>
     </g>
     <g id="line2d_2">
      <defs>
       <path id="me4dcdd0478" d="M 0 0 
L 0 3.5 
" style="stroke: #000000; stroke-width: 0.8"/>
      </defs>
      <g>
       <use xlink:href="#me4dcdd0478" x="57.6" y="307.584" style="stroke: #000000; stroke-width: 0.8"/>
      </g>
     </g>
     <g id="text_1">
      <!-- 0 -->
      <g transform="translate(54.41875 322.182437) scale(0.1 -0.1)">
       <defs>
        <path id="DejaVuSans-30" d="M 2034 4250 
Q 1547 4250 1301 3770 
Q 1056 3291 1056 2328 
Q 1056 1369 1301 889 
Q 1547 409 2034 409 
Q 2525 409 2770 889 
Q 3016 1369 3016 2328 
Q 3016 3291 2770 3770 
Q 2525 4250 2034 4250 
z
M 2034 4750 
Q 2819 4750 3233 4129 
Q 3647 3509 3647 2328 
Q 3647 1150 3233 529 
Q 2819 -91 2034 -91 
Q 1250 -91 836 529 
Q 422 1150 422 2328 
Q 422 3509 836 4129 
Q 1250 4750 2034 4750 
z
" transform="scale(0.015625)"/>
       </defs>
       <use xlink:href="#DejaVuSans-30"/>
      </g>
     </g>
    </g>
    <g id="xtick_2">
     <g id="line2d_3">
      <path d="M 108.617143 307.584 
L 108.617143 41.472 
" clip-path="url(#pae69140b00)" style="fill: none; stroke: #b0b0b0; stroke-width: 0.8; stroke-linecap: square"/>
     </g>
     <g id="line2d_4">
      <g>
       <use xlink:href="#me4dcdd0478" x="108.617143" y="307.584" style="stroke: #000000; stroke-width: 0.8"/>
      </g>
     </g>
     <g id="text_2">
      <!-- 200 -->
      <g transform="translate(99.073393 322.182437) scale(0.1 -0.1)">
       <defs>
        <path id="DejaVuSans-32" d="M 1228 531 
L 3431 531 
L 3431 0 
L 469 0 
L 469 531 
Q 828 903 1448 1529 
Q 2069 2156 2228 2338 
Q 2531 2678 2651 2914 
Q 2772 3150 2772 3378 
Q 2772 3750 2511 3984 
Q 2250 4219 1831 4219 
Q 1534 4219 1204 4116 
Q 875 4013 500 3803 
L 500 4441 
Q 881 4594 1212 4672 
Q 1544 4750 1819 4750 
Q 2544 4750 2975 4387 
Q 3406 4025 3406 3419 
Q 3406 3131 3298 2873 
Q 3191 2616 2906 2266 
Q 2828 2175 2409 1742 
Q 1991 1309 1228 531 
z
" transform="scale(0.015625)"/>
       </defs>
       <use xlink:href="#DejaVuSans-32"/>
       <use xlink:href="#DejaVuSans-30" x="63.623047"/>
       <use xlink:href="#DejaVuSans-30" x="127.246094"/>
      </g>
     </g>
    </g>
    <g id="xtick_3">
     <g id="line2d_5">
      <path d="M 159.634286 307.584 
L 159.634286 41.472 
" clip-path="url(#pae69140b00)" style="fill: none; stroke: #b0b0b0; stroke-width: 0.8; stroke-linecap: square"/>
     </g>
     <g id="line2d_6">
      <g>
       <use xlink:href="#me4dcdd0478" x="159.634286" y="307.584" style="stroke: #000000; stroke-width: 0.8"/>
      </g>
     </g>
     <g id="text_3">
      <!-- 400 -->
      <g transform="translate(150.090536 322.182437) scale(0.1 -0.1)">
       <defs>
        <path id="DejaVuSans-34" d="M 2419 4116 
L 825 1625 
L 2419 1625 
L 2419 4116 
z
M 2253 4666 
L 3047 4666 
L 3047 1625 
L 3713 1625 
L 3713 1100 
L 3047 1100 
L 3047 0 
L 2419 0 
L 2419 1100 
L 313 1100 
L 313 1709 
L 2253 4666 
z
" transform="scale(0.015625)"/>
       </defs>
       <use xlink:href="#DejaVuSans-34"/>
       <use xlink:href="#DejaVuSans-30" x="63.623047"/>
       <use xlink:href="#DejaVuSans-30" x="127.246094"/>
      </g>
     </g>
    </g>
    <g id="xtick_4">
     <g id="line2d_7">
      <path d="M 210.651429 307.584 
L 210.651429 41.472 
" clip-path="url(#pae69140b00)" style="fill: none; stroke: #b0b0b0; stroke-width: 0.8; stroke-linecap: square"/>
     </g>
     <g id="line2d_8">
      <g>
       <use xlink:href="#me4dcdd0478" x="210.651429" y="307.584" style="stroke: #000000; stroke-width: 0.8"/>
      </g>
     </g>
     <g id="text_4">
      <!-- 600 -->
      <g transform="translate(201.107679 322.182437) scale(0.1 -0.1)">
       <defs>
        <path id="DejaVuSans-36" d="M 2113 2584 
Q 1688 2584 1439 2293 
Q 1191 2003 1191 1497 
Q 1191 994 1439 701 
Q 1688 409 2113 409 
Q 2538 409 2786 701 
Q 3034 994 3034 1497 
Q 3034 2003 2786 2293 
Q 2538 2584 2113 2584 
z
M 3366 4563 
L 3366 3988 
Q 3128 4100 2886 4159 
Q 2644 4219 2406 4219 
Q 1781 4219 1451 3797 
Q 1122 3375 1075 2522 
Q 1259 2794 1537 2939 
Q 1816 3084 2150 3084 
Q 2853 3084 3261 2657 
Q 3669 2231 3669 1497 
Q 3669 778 3244 343 
Q 2819 -91 2113 -91 
Q 1303 -91 875 529 
Q 447 1150 447 2328 
Q 447 3434 972 4092 
Q 1497 4750 2381 4750 
Q 2619 4750 2861 4703 
Q 3103 4656 3366 4563 
z
" transform="scale(0.015625)"/>
       </defs>
       <use xlink:href="#DejaVuSans-36"/>
       <use xlink:href="#DejaVuSans-30" x="63.623047"/>
       <use xlink:href="#DejaVuSans-30" x="127.246094"/>
      </g>
     </g>
    </g>
    <g id="xtick_5">
     <g id="line2d_9">
      <path d="M 261.668571 307.584 
L 261.668571 41.472 
" clip-path="url(#pae69140b00)" style="fill: none; stroke: #b0b0b0; stroke-width: 0.8; stroke-linecap: square"/>
     </g>
     <g id="line2d_10">
      <g>
       <use xlink:href="#me4dcdd0478" x="261.668571" y="307.584" style="stroke: #000000; stroke-width: 0.8"/>
      </g>
     </g>
     <g id="text_5">
      <!-- 800 -->
      <g transform="translate(252.124821 322.182437) scale(0.1 -0.1)">
       <defs>
        <path id="DejaVuSans-38" d="M 2034 2216 
Q 1584 2216 1326 1975 
Q 1069 1734 1069 1313 
Q 1069 891 1326 650 
Q 1584 409 2034 409 
Q 2484 409 2743 651 
Q 3003 894 3003 1313 
Q 3003 1734 2745 1975 
Q 2488 2216 2034 2216 
z
M 1403 2484 
Q 997 2584 770 2862 
Q 544 3141 544 3541 
Q 544 4100 942 4425 
Q 1341 4750 2034 4750 
Q 2731 4750 3128 4425 
Q 3525 4100 3525 3541 
Q 3525 3141 3298 2862 
Q 3072 2584 2669 2484 
Q 3125 2378 3379 2068 
Q 3634 1759 3634 1313 
Q 3634 634 3220 271 
Q 2806 -91 2034 -91 
Q 1263 -91 848 271 
Q 434 634 434 1313 
Q 434 1759 690 2068 
Q 947 2378 1403 2484 
z
M 1172 3481 
Q 1172 3119 1398 2916 
Q 1625 2713 2034 2713 
Q 2441 2713 2670 2916 
Q 2900 3119 2900 3481 
Q 2900 3844 2670 4047 
Q 2441 4250 2034 4250 
Q 1625 4250 1398 4047 
Q 1172 3844 1172 3481 
z
" transform="scale(0.015625)"/>
       </defs>
       <use xlink:href="#DejaVuSans-38"/>
       <use xlink:href="#DejaVuSans-30" x="63.623047"/>
       <use xlink:href="#DejaVuSans-30" x="127.246094"/>
      </g>
     </g>
    </g>
    <g id="xtick_6">
     <g id="line2d_11">
      <path d="M 312.685714 307.584 
L 312.685714 41.472 
" clip-path="url(#pae69140b00)" style="fill: none; stroke: #b0b0b0; stroke-width: 0.8; stroke-linecap: square"/>
     </g>
     <g id="line2d_12">
      <g>
       <use xlink:href="#me4dcdd0478" x="312.685714" y="307.584" style="stroke: #000000; stroke-width: 0.8"/>
      </g>
     </g>
     <g id="text_6">
      <!-- 1000 -->
      <g transform="translate(299.960714 322.182437) scale(0.1 -0.1)">
       <defs>
        <path id="DejaVuSans-31" d="M 794 531 
L 1825 531 
L 1825 4091 
L 703 3866 
L 703 4441 
L 1819 4666 
L 2450 4666 
L 2450 531 
L 3481 531 
L 3481 0 
L 794 0 
L 794 531 
z
" transform="scale(0.015625)"/>
       </defs>
       <use xlink:href="#DejaVuSans-31"/>
       <use xlink:href="#DejaVuSans-30" x="63.623047"/>
       <use xlink:href="#DejaVuSans-30" x="127.246094"/>
       <use xlink:href="#DejaVuSans-30" x="190.869141"/>
      </g>
     </g>
    </g>
    <g id="xtick_7">
     <g id="line2d_13">
      <path d="M 363.702857 307.584 
L 363.702857 41.472 
" clip-path="url(#pae69140b00)" style="fill: none; stroke: #b0b0b0; stroke-width: 0.8; stroke-linecap: square"/>
     </g>
     <g id="line2d_14">
      <g>
       <use xlink:href="#me4dcdd0478" x="363.702857" y="307.584" style="stroke: #000000; stroke-width: 0.8"/>
      </g>
     </g>
     <g id="text_7">
      <!-- 1200 -->
      <g transform="translate(350.977857 322.182437) scale(0.1 -0.1)">
       <use xlink:href="#DejaVuSans-31"/>
       <use xlink:href="#DejaVuSans-32" x="63.623047"/>
       <use xlink:href="#DejaVuSans-30" x="127.246094"/>
       <use xlink:href="#DejaVuSans-30" x="190.869141"/>
      </g>
     </g>
    </g>
    <g id="xtick_8">
     <g id="line2d_15">
      <path d="M 414.72 307.584 
L 414.72 41.472 
" clip-path="url(#pae69140b00)" style="fill: none; stroke: #b0b0b0; stroke-width: 0.8; stroke-linecap: square"/>
     </g>
     <g id="line2d_16">
      <g>
       <use xlink:href="#me4dcdd0478" x="414.72" y="307.584" style="stroke: #000000; stroke-width: 0.8"/>
      </g>
     </g>
     <g id="text_8">
      <!-- 1400 -->
      <g transform="translate(401.995 322.182437) scale(0.1 -0.1)">
       <use xlink:href="#DejaVuSans-31"/>
       <use xlink:href="#DejaVuSans-34" x="63.623047"/>
       <use xlink:href="#DejaVuSans-30" x="127.246094"/>
       <use xlink:href="#DejaVuSans-30" x="190.869141"/>
      </g>
     </g>
    </g>
    <g id="text_9">
     <!-- Artificial delay (ms or time unit) -->
     <g transform="translate(140.581875 337.38025) scale(0.12 -0.12)">
      <defs>
       <path id="DejaVuSans-41" d="M 2188 4044 
L 1331 1722 
L 3047 1722 
L 2188 4044 
z
M 1831 4666 
L 2547 4666 
L 4325 0 
L 3669 0 
L 3244 1197 
L 1141 1197 
L 716 0 
L 50 0 
L 1831 4666 
z
" transform="scale(0.015625)"/>
       <path id="DejaVuSans-72" d="M 2631 2963 
Q 2534 3019 2420 3045 
Q 2306 3072 2169 3072 
Q 1681 3072 1420 2755 
Q 1159 2438 1159 1844 
L 1159 0 
L 581 0 
L 581 3500 
L 1159 3500 
L 1159 2956 
Q 1341 3275 1631 3429 
Q 1922 3584 2338 3584 
Q 2397 3584 2469 3576 
Q 2541 3569 2628 3553 
L 2631 2963 
z
" transform="scale(0.015625)"/>
       <path id="DejaVuSans-74" d="M 1172 4494 
L 1172 3500 
L 2356 3500 
L 2356 3053 
L 1172 3053 
L 1172 1153 
Q 1172 725 1289 603 
Q 1406 481 1766 481 
L 2356 481 
L 2356 0 
L 1766 0 
Q 1100 0 847 248 
Q 594 497 594 1153 
L 594 3053 
L 172 3053 
L 172 3500 
L 594 3500 
L 594 4494 
L 1172 4494 
z
" transform="scale(0.015625)"/>
       <path id="DejaVuSans-69" d="M 603 3500 
L 1178 3500 
L 1178 0 
L 603 0 
L 603 3500 
z
M 603 4863 
L 1178 4863 
L 1178 4134 
L 603 4134 
L 603 4863 
z
" transform="scale(0.015625)"/>
       <path id="DejaVuSans-66" d="M 2375 4863 
L 2375 4384 
L 1825 4384 
Q 1516 4384 1395 4259 
Q 1275 4134 1275 3809 
L 1275 3500 
L 2222 3500 
L 2222 3053 
L 1275 3053 
L 1275 0 
L 697 0 
L 697 3053 
L 147 3053 
L 147 3500 
L 697 3500 
L 697 3744 
Q 697 4328 969 4595 
Q 1241 4863 1831 4863 
L 2375 4863 
z
" transform="scale(0.015625)"/>
       <path id="DejaVuSans-63" d="M 3122 3366 
L 3122 2828 
Q 2878 2963 2633 3030 
Q 2388 3097 2138 3097 
Q 1578 3097 1268 2742 
Q 959 2388 959 1747 
Q 959 1106 1268 751 
Q 1578 397 2138 397 
Q 2388 397 2633 464 
Q 2878 531 3122 666 
L 3122 134 
Q 2881 22 2623 -34 
Q 2366 -91 2075 -91 
Q 1284 -91 818 406 
Q 353 903 353 1747 
Q 353 2603 823 3093 
Q 1294 3584 2113 3584 
Q 2378 3584 2631 3529 
Q 2884 3475 3122 3366 
z
" transform="scale(0.015625)"/>
       <path id="DejaVuSans-61" d="M 2194 1759 
Q 1497 1759 1228 1600 
Q 959 1441 959 1056 
Q 959 750 1161 570 
Q 1363 391 1709 391 
Q 2188 391 2477 730 
Q 2766 1069 2766 1631 
L 2766 1759 
L 2194 1759 
z
M 3341 1997 
L 3341 0 
L 2766 0 
L 2766 531 
Q 2569 213 2275 61 
Q 1981 -91 1556 -91 
Q 1019 -91 701 211 
Q 384 513 384 1019 
Q 384 1609 779 1909 
Q 1175 2209 1959 2209 
L 2766 2209 
L 2766 2266 
Q 2766 2663 2505 2880 
Q 2244 3097 1772 3097 
Q 1472 3097 1187 3025 
Q 903 2953 641 2809 
L 641 3341 
Q 956 3463 1253 3523 
Q 1550 3584 1831 3584 
Q 2591 3584 2966 3190 
Q 3341 2797 3341 1997 
z
" transform="scale(0.015625)"/>
       <path id="DejaVuSans-6c" d="M 603 4863 
L 1178 4863 
L 1178 0 
L 603 0 
L 603 4863 
z
" transform="scale(0.015625)"/>
       <path id="DejaVuSans-20" transform="scale(0.015625)"/>
       <path id="DejaVuSans-64" d="M 2906 2969 
L 2906 4863 
L 3481 4863 
L 3481 0 
L 2906 0 
L 2906 525 
Q 2725 213 2448 61 
Q 2172 -91 1784 -91 
Q 1150 -91 751 415 
Q 353 922 353 1747 
Q 353 2572 751 3078 
Q 1150 3584 1784 3584 
Q 2172 3584 2448 3432 
Q 2725 3281 2906 2969 
z
M 947 1747 
Q 947 1113 1208 752 
Q 1469 391 1925 391 
Q 2381 391 2643 752 
Q 2906 1113 2906 1747 
Q 2906 2381 2643 2742 
Q 2381 3103 1925 3103 
Q 1469 3103 1208 2742 
Q 947 2381 947 1747 
z
" transform="scale(0.015625)"/>
       <path id="DejaVuSans-65" d="M 3597 1894 
L 3597 1613 
L 953 1613 
Q 991 1019 1311 708 
Q 1631 397 2203 397 
Q 2534 397 2845 478 
Q 3156 559 3463 722 
L 3463 178 
Q 3153 47 2828 -22 
Q 2503 -91 2169 -91 
Q 1331 -91 842 396 
Q 353 884 353 1716 
Q 353 2575 817 3079 
Q 1281 3584 2069 3584 
Q 2775 3584 3186 3129 
Q 3597 2675 3597 1894 
z
M 3022 2063 
Q 3016 2534 2758 2815 
Q 2500 3097 2075 3097 
Q 1594 3097 1305 2825 
Q 1016 2553 972 2059 
L 3022 2063 
z
" transform="scale(0.015625)"/>
       <path id="DejaVuSans-79" d="M 2059 -325 
Q 1816 -950 1584 -1140 
Q 1353 -1331 966 -1331 
L 506 -1331 
L 506 -850 
L 844 -850 
Q 1081 -850 1212 -737 
Q 1344 -625 1503 -206 
L 1606 56 
L 191 3500 
L 800 3500 
L 1894 763 
L 2988 3500 
L 3597 3500 
L 2059 -325 
z
" transform="scale(0.015625)"/>
       <path id="DejaVuSans-28" d="M 1984 4856 
Q 1566 4138 1362 3434 
Q 1159 2731 1159 2009 
Q 1159 1288 1364 580 
Q 1569 -128 1984 -844 
L 1484 -844 
Q 1016 -109 783 600 
Q 550 1309 550 2009 
Q 550 2706 781 3412 
Q 1013 4119 1484 4856 
L 1984 4856 
z
" transform="scale(0.015625)"/>
       <path id="DejaVuSans-6d" d="M 3328 2828 
Q 3544 3216 3844 3400 
Q 4144 3584 4550 3584 
Q 5097 3584 5394 3201 
Q 5691 2819 5691 2113 
L 5691 0 
L 5113 0 
L 5113 2094 
Q 5113 2597 4934 2840 
Q 4756 3084 4391 3084 
Q 3944 3084 3684 2787 
Q 3425 2491 3425 1978 
L 3425 0 
L 2847 0 
L 2847 2094 
Q 2847 2600 2669 2842 
Q 2491 3084 2119 3084 
Q 1678 3084 1418 2786 
Q 1159 2488 1159 1978 
L 1159 0 
L 581 0 
L 581 3500 
L 1159 3500 
L 1159 2956 
Q 1356 3278 1631 3431 
Q 1906 3584 2284 3584 
Q 2666 3584 2933 3390 
Q 3200 3197 3328 2828 
z
" transform="scale(0.015625)"/>
       <path id="DejaVuSans-73" d="M 2834 3397 
L 2834 2853 
Q 2591 2978 2328 3040 
Q 2066 3103 1784 3103 
Q 1356 3103 1142 2972 
Q 928 2841 928 2578 
Q 928 2378 1081 2264 
Q 1234 2150 1697 2047 
L 1894 2003 
Q 2506 1872 2764 1633 
Q 3022 1394 3022 966 
Q 3022 478 2636 193 
Q 2250 -91 1575 -91 
Q 1294 -91 989 -36 
Q 684 19 347 128 
L 347 722 
Q 666 556 975 473 
Q 1284 391 1588 391 
Q 1994 391 2212 530 
Q 2431 669 2431 922 
Q 2431 1156 2273 1281 
Q 2116 1406 1581 1522 
L 1381 1569 
Q 847 1681 609 1914 
Q 372 2147 372 2553 
Q 372 3047 722 3315 
Q 1072 3584 1716 3584 
Q 2034 3584 2315 3537 
Q 2597 3491 2834 3397 
z
" transform="scale(0.015625)"/>
       <path id="DejaVuSans-6f" d="M 1959 3097 
Q 1497 3097 1228 2736 
Q 959 2375 959 1747 
Q 959 1119 1226 758 
Q 1494 397 1959 397 
Q 2419 397 2687 759 
Q 2956 1122 2956 1747 
Q 2956 2369 2687 2733 
Q 2419 3097 1959 3097 
z
M 1959 3584 
Q 2709 3584 3137 3096 
Q 3566 2609 3566 1747 
Q 3566 888 3137 398 
Q 2709 -91 1959 -91 
Q 1206 -91 779 398 
Q 353 888 353 1747 
Q 353 2609 779 3096 
Q 1206 3584 1959 3584 
z
" transform="scale(0.015625)"/>
       <path id="DejaVuSans-75" d="M 544 1381 
L 544 3500 
L 1119 3500 
L 1119 1403 
Q 1119 906 1312 657 
Q 1506 409 1894 409 
Q 2359 409 2629 706 
Q 2900 1003 2900 1516 
L 2900 3500 
L 3475 3500 
L 3475 0 
L 2900 0 
L 2900 538 
Q 2691 219 2414 64 
Q 2138 -91 1772 -91 
Q 1169 -91 856 284 
Q 544 659 544 1381 
z
M 1991 3584 
L 1991 3584 
z
" transform="scale(0.015625)"/>
       <path id="DejaVuSans-6e" d="M 3513 2113 
L 3513 0 
L 2938 0 
L 2938 2094 
Q 2938 2591 2744 2837 
Q 2550 3084 2163 3084 
Q 1697 3084 1428 2787 
Q 1159 2491 1159 1978 
L 1159 0 
L 581 0 
L 581 3500 
L 1159 3500 
L 1159 2956 
Q 1366 3272 1645 3428 
Q 1925 3584 2291 3584 
Q 2894 3584 3203 3211 
Q 3513 2838 3513 2113 
z
" transform="scale(0.015625)"/>
       <path id="DejaVuSans-29" d="M 513 4856 
L 1013 4856 
Q 1481 4119 1714 3412 
Q 1947 2706 1947 2009 
Q 1947 1309 1714 600 
Q 1481 -109 1013 -844 
L 513 -844 
Q 928 -128 1133 580 
Q 1338 1288 1338 2009 
Q 1338 2731 1133 3434 
Q 928 4138 513 4856 
z
" transform="scale(0.015625)"/>
      </defs>
      <use xlink:href="#DejaVuSans-41"/>
      <use xlink:href="#DejaVuSans-72" x="68.408203"/>
      <use xlink:href="#DejaVuSans-74" x="109.521484"/>
      <use xlink:href="#DejaVuSans-69" x="148.730469"/>
      <use xlink:href="#DejaVuSans-66" x="176.513672"/>
      <use xlink:href="#DejaVuSans-69" x="211.71875"/>
      <use xlink:href="#DejaVuSans-63" x="239.501953"/>
      <use xlink:href="#DejaVuSans-69" x="294.482422"/>
      <use xlink:href="#DejaVuSans-61" x="322.265625"/>
      <use xlink:href="#DejaVuSans-6c" x="383.544922"/>
      <use xlink:href="#DejaVuSans-20" x="411.328125"/>
      <use xlink:href="#DejaVuSans-64" x="443.115234"/>
      <use xlink:href="#DejaVuSans-65" x="506.591797"/>
      <use xlink:href="#DejaVuSans-6c" x="568.115234"/>
      <use xlink:href="#DejaVuSans-61" x="595.898438"/>
      <use xlink:href="#DejaVuSans-79" x="657.177734"/>
      <use xlink:href="#DejaVuSans-20" x="716.357422"/>
      <use xlink:href="#DejaVuSans-28" x="748.144531"/>
      <use xlink:href="#DejaVuSans-6d" x="787.158203"/>
      <use xlink:href="#DejaVuSans-73" x="884.570312"/>
      <use xlink:href="#DejaVuSans-20" x="936.669922"/>
      <use xlink:href="#DejaVuSans-6f" x="968.457031"/>
      <use xlink:href="#DejaVuSans-72" x="1029.638672"/>
      <use xlink:href="#DejaVuSans-20" x="1070.751953"/>
      <use xlink:href="#DejaVuSans-74" x="1102.539062"/>
      <use xlink:href="#DejaVuSans-69" x="1141.748047"/>
      <use xlink:href="#DejaVuSans-6d" x="1169.53125"/>
      <use xlink:href="#DejaVuSans-65" x="1266.943359"/>
      <use xlink:href="#DejaVuSans-20" x="1328.466797"/>
      <use xlink:href="#DejaVuSans-75" x="1360.253906"/>
      <use xlink:href="#DejaVuSans-6e" x="1423.632812"/>
      <use xlink:href="#DejaVuSans-69" x="1487.011719"/>
      <use xlink:href="#DejaVuSans-74" x="1514.794922"/>
      <use xlink:href="#DejaVuSans-29" x="1554.003906"/>
     </g>
    </g>
   </g>
   <g id="matplotlib.axis_2">
    <g id="ytick_1">
     <g id="line2d_17">
      <path d="M 57.6 307.584 
L 414.72 307.584 
" clip-path="url(#pae69140b00)" style="fill: none; stroke: #b0b0b0; stroke-width: 0.8; stroke-linecap: square"/>
     </g>
     <g id="line2d_18">
      <defs>
       <path id="m2c781b4946" d="M 0 0 
L -3.5 0 
" style="stroke: #000000; stroke-width: 0.8"/>
      </defs>
      <g>
       <use xlink:href="#m2c781b4946" x="57.6" y="307.584" style="stroke: #000000; stroke-width: 0.8"/>
      </g>
     </g>
     <g id="text_10">
      <!-- 0 -->
      <g transform="translate(44.2375 311.383219) scale(0.1 -0.1)">
       <use xlink:href="#DejaVuSans-30"/>
      </g>
     </g>
    </g>
    <g id="ytick_2">
     <g id="line2d_19">
      <path d="M 57.6 254.3616 
L 414.72 254.3616 
" clip-path="url(#pae69140b00)" style="fill: none; stroke: #b0b0b0; stroke-width: 0.8; stroke-linecap: square"/>
     </g>
     <g id="line2d_20">
      <g>
       <use xlink:href="#m2c781b4946" x="57.6" y="254.3616" style="stroke: #000000; stroke-width: 0.8"/>
      </g>
     </g>
     <g id="text_11">
      <!-- 5 -->
      <g transform="translate(44.2375 258.160819) scale(0.1 -0.1)">
       <defs>
        <path id="DejaVuSans-35" d="M 691 4666 
L 3169 4666 
L 3169 4134 
L 1269 4134 
L 1269 2991 
Q 1406 3038 1543 3061 
Q 1681 3084 1819 3084 
Q 2600 3084 3056 2656 
Q 3513 2228 3513 1497 
Q 3513 744 3044 326 
Q 2575 -91 1722 -91 
Q 1428 -91 1123 -41 
Q 819 9 494 109 
L 494 744 
Q 775 591 1075 516 
Q 1375 441 1709 441 
Q 2250 441 2565 725 
Q 2881 1009 2881 1497 
Q 2881 1984 2565 2268 
Q 2250 2553 1709 2553 
Q 1456 2553 1204 2497 
Q 953 2441 691 2322 
L 691 4666 
z
" transform="scale(0.015625)"/>
       </defs>
       <use xlink:href="#DejaVuSans-35"/>
      </g>
     </g>
    </g>
    <g id="ytick_3">
     <g id="line2d_21">
      <path d="M 57.6 201.1392 
L 414.72 201.1392 
" clip-path="url(#pae69140b00)" style="fill: none; stroke: #b0b0b0; stroke-width: 0.8; stroke-linecap: square"/>
     </g>
     <g id="line2d_22">
      <g>
       <use xlink:href="#m2c781b4946" x="57.6" y="201.1392" style="stroke: #000000; stroke-width: 0.8"/>
      </g>
     </g>
     <g id="text_12">
      <!-- 10 -->
      <g transform="translate(37.875 204.938419) scale(0.1 -0.1)">
       <use xlink:href="#DejaVuSans-31"/>
       <use xlink:href="#DejaVuSans-30" x="63.623047"/>
      </g>
     </g>
    </g>
    <g id="ytick_4">
     <g id="line2d_23">
      <path d="M 57.6 147.9168 
L 414.72 147.9168 
" clip-path="url(#pae69140b00)" style="fill: none; stroke: #b0b0b0; stroke-width: 0.8; stroke-linecap: square"/>
     </g>
     <g id="line2d_24">
      <g>
       <use xlink:href="#m2c781b4946" x="57.6" y="147.9168" style="stroke: #000000; stroke-width: 0.8"/>
      </g>
     </g>
     <g id="text_13">
      <!-- 15 -->
      <g transform="translate(37.875 151.716019) scale(0.1 -0.1)">
       <use xlink:href="#DejaVuSans-31"/>
       <use xlink:href="#DejaVuSans-35" x="63.623047"/>
      </g>
     </g>
    </g>
    <g id="ytick_5">
     <g id="line2d_25">
      <path d="M 57.6 94.6944 
L 414.72 94.6944 
" clip-path="url(#pae69140b00)" style="fill: none; stroke: #b0b0b0; stroke-width: 0.8; stroke-linecap: square"/>
     </g>
     <g id="line2d_26">
      <g>
       <use xlink:href="#m2c781b4946" x="57.6" y="94.6944" style="stroke: #000000; stroke-width: 0.8"/>
      </g>
     </g>
     <g id="text_14">
      <!-- 20 -->
      <g transform="translate(37.875 98.493619) scale(0.1 -0.1)">
       <use xlink:href="#DejaVuSans-32"/>
       <use xlink:href="#DejaVuSans-30" x="63.623047"/>
      </g>
     </g>
    </g>
    <g id="ytick_6">
     <g id="line2d_27">
      <path d="M 57.6 41.472 
L 414.72 41.472 
" clip-path="url(#pae69140b00)" style="fill: none; stroke: #b0b0b0; stroke-width: 0.8; stroke-linecap: square"/>
     </g>
     <g id="line2d_28">
      <g>
       <use xlink:href="#m2c781b4946" x="57.6" y="41.472" style="stroke: #000000; stroke-width: 0.8"/>
      </g>
     </g>
     <g id="text_15">
      <!-- 25 -->
      <g transform="translate(37.875 45.271219) scale(0.1 -0.1)">
       <use xlink:href="#DejaVuSans-32"/>
       <use xlink:href="#DejaVuSans-35" x="63.623047"/>
      </g>
     </g>
    </g>
    <g id="text_16">
     <!-- Duration of the query (s) -->
     <g transform="translate(31.379375 248.973) rotate(-90) scale(0.12 -0.12)">
      <defs>
       <path id="DejaVuSans-44" d="M 1259 4147 
L 1259 519 
L 2022 519 
Q 2988 519 3436 956 
Q 3884 1394 3884 2338 
Q 3884 3275 3436 3711 
Q 2988 4147 2022 4147 
L 1259 4147 
z
M 628 4666 
L 1925 4666 
Q 3281 4666 3915 4102 
Q 4550 3538 4550 2338 
Q 4550 1131 3912 565 
Q 3275 0 1925 0 
L 628 0 
L 628 4666 
z
" transform="scale(0.015625)"/>
       <path id="DejaVuSans-68" d="M 3513 2113 
L 3513 0 
L 2938 0 
L 2938 2094 
Q 2938 2591 2744 2837 
Q 2550 3084 2163 3084 
Q 1697 3084 1428 2787 
Q 1159 2491 1159 1978 
L 1159 0 
L 581 0 
L 581 4863 
L 1159 4863 
L 1159 2956 
Q 1366 3272 1645 3428 
Q 1925 3584 2291 3584 
Q 2894 3584 3203 3211 
Q 3513 2838 3513 2113 
z
" transform="scale(0.015625)"/>
       <path id="DejaVuSans-71" d="M 947 1747 
Q 947 1113 1208 752 
Q 1469 391 1925 391 
Q 2381 391 2643 752 
Q 2906 1113 2906 1747 
Q 2906 2381 2643 2742 
Q 2381 3103 1925 3103 
Q 1469 3103 1208 2742 
Q 947 2381 947 1747 
z
M 2906 525 
Q 2725 213 2448 61 
Q 2172 -91 1784 -91 
Q 1150 -91 751 415 
Q 353 922 353 1747 
Q 353 2572 751 3078 
Q 1150 3584 1784 3584 
Q 2172 3584 2448 3432 
Q 2725 3281 2906 2969 
L 2906 3500 
L 3481 3500 
L 3481 -1331 
L 2906 -1331 
L 2906 525 
z
" transform="scale(0.015625)"/>
      </defs>
      <use xlink:href="#DejaVuSans-44"/>
      <use xlink:href="#DejaVuSans-75" x="77.001953"/>
      <use xlink:href="#DejaVuSans-72" x="140.380859"/>
      <use xlink:href="#DejaVuSans-61" x="181.494141"/>
      <use xlink:href="#DejaVuSans-74" x="242.773438"/>
      <use xlink:href="#DejaVuSans-69" x="281.982422"/>
      <use xlink:href="#DejaVuSans-6f" x="309.765625"/>
      <use xlink:href="#DejaVuSans-6e" x="370.947266"/>
      <use xlink:href="#DejaVuSans-20" x="434.326172"/>
      <use xlink:href="#DejaVuSans-6f" x="466.113281"/>
      <use xlink:href="#DejaVuSans-66" x="527.294922"/>
      <use xlink:href="#DejaVuSans-20" x="562.5"/>
      <use xlink:href="#DejaVuSans-74" x="594.287109"/>
      <use xlink:href="#DejaVuSans-68" x="633.496094"/>
      <use xlink:href="#DejaVuSans-65" x="696.875"/>
      <use xlink:href="#DejaVuSans-20" x="758.398438"/>
      <use xlink:href="#DejaVuSans-71" x="790.185547"/>
      <use xlink:href="#DejaVuSans-75" x="853.662109"/>
      <use xlink:href="#DejaVuSans-65" x="917.041016"/>
      <use xlink:href="#DejaVuSans-72" x="978.564453"/>
      <use xlink:href="#DejaVuSans-79" x="1019.677734"/>
      <use xlink:href="#DejaVuSans-20" x="1078.857422"/>
      <use xlink:href="#DejaVuSans-28" x="1110.644531"/>
      <use xlink:href="#DejaVuSans-73" x="1149.658203"/>
      <use xlink:href="#DejaVuSans-29" x="1201.757812"/>
     </g>
    </g>
   </g>
   <g id="line2d_29">
    <path d="M 57.6 307.355288 
L 108.617143 290.32412 
L 159.634286 273.292952 
L 210.651429 256.261784 
L 261.668571 239.230616 
L 312.685714 222.199448 
L 363.702857 205.16828 
L 414.72 188.137112 
" clip-path="url(#pae69140b00)" style="fill: none; stroke-dasharray: 5.55,2.4; stroke-dashoffset: 0; stroke: #1f77b4; stroke-width: 1.5"/>
    <defs>
     <path id="mc2998ec0b0" d="M -3 3 
L 3 -3 
M -3 -3 
L 3 3 
" style="stroke: #1f77b4"/>
    </defs>
    <g clip-path="url(#pae69140b00)">
     <use xlink:href="#mc2998ec0b0" x="57.6" y="307.355288" style="fill: #1f77b4; stroke: #1f77b4"/>
     <use xlink:href="#mc2998ec0b0" x="108.617143" y="290.32412" style="fill: #1f77b4; stroke: #1f77b4"/>
     <use xlink:href="#mc2998ec0b0" x="159.634286" y="273.292952" style="fill: #1f77b4; stroke: #1f77b4"/>
     <use xlink:href="#mc2998ec0b0" x="210.651429" y="256.261784" style="fill: #1f77b4; stroke: #1f77b4"/>
     <use xlink:href="#mc2998ec0b0" x="261.668571" y="239.230616" style="fill: #1f77b4; stroke: #1f77b4"/>
     <use xlink:href="#mc2998ec0b0" x="312.685714" y="222.199448" style="fill: #1f77b4; stroke: #1f77b4"/>
     <use xlink:href="#mc2998ec0b0" x="363.702857" y="205.16828" style="fill: #1f77b4; stroke: #1f77b4"/>
     <use xlink:href="#mc2998ec0b0" x="414.72" y="188.137112" style="fill: #1f77b4; stroke: #1f77b4"/>
    </g>
   </g>
   <g id="line2d_30">
    <path d="M 57.6 307.403044 
L 108.617143 289.807718 
L 159.634286 272.872351 
L 210.651429 256.00085 
L 261.668571 238.714214 
L 312.685714 221.81078 
L 363.702857 204.939279 
L 414.72 187.982623 
" clip-path="url(#pae69140b00)" style="fill: none; stroke: #1f77b4; stroke-width: 1.5; stroke-linecap: square"/>
    <defs>
     <path id="md3407d0a42" d="M -0 4.242641 
L 2.545584 0 
L 0 -4.242641 
L -2.545584 -0 
z
" style="stroke: #1f77b4; stroke-linejoin: miter"/>
    </defs>
    <g clip-path="url(#pae69140b00)">
     <use xlink:href="#md3407d0a42" x="57.6" y="307.403044" style="fill: #1f77b4; stroke: #1f77b4; stroke-linejoin: miter"/>
     <use xlink:href="#md3407d0a42" x="108.617143" y="289.807718" style="fill: #1f77b4; stroke: #1f77b4; stroke-linejoin: miter"/>
     <use xlink:href="#md3407d0a42" x="159.634286" y="272.872351" style="fill: #1f77b4; stroke: #1f77b4; stroke-linejoin: miter"/>
     <use xlink:href="#md3407d0a42" x="210.651429" y="256.00085" style="fill: #1f77b4; stroke: #1f77b4; stroke-linejoin: miter"/>
     <use xlink:href="#md3407d0a42" x="261.668571" y="238.714214" style="fill: #1f77b4; stroke: #1f77b4; stroke-linejoin: miter"/>
     <use xlink:href="#md3407d0a42" x="312.685714" y="221.81078" style="fill: #1f77b4; stroke: #1f77b4; stroke-linejoin: miter"/>
     <use xlink:href="#md3407d0a42" x="363.702857" y="204.939279" style="fill: #1f77b4; stroke: #1f77b4; stroke-linejoin: miter"/>
     <use xlink:href="#md3407d0a42" x="414.72" y="187.982623" style="fill: #1f77b4; stroke: #1f77b4; stroke-linejoin: miter"/>
    </g>
   </g>
   <g id="line2d_31">
    <path d="M 57.6 307.31527 
L 108.617143 283.897414 
L 159.634286 260.479558 
L 210.651429 237.061702 
L 261.668571 213.643846 
L 312.685714 190.22599 
L 363.702857 166.808134 
L 414.72 143.390278 
" clip-path="url(#pae69140b00)" style="fill: none; stroke-dasharray: 5.55,2.4; stroke-dashoffset: 0; stroke: #ff7f0e; stroke-width: 1.5"/>
    <defs>
     <path id="m670fb79f86" d="M -3 3 
L 3 -3 
M -3 -3 
L 3 3 
" style="stroke: #ff7f0e"/>
    </defs>
    <g clip-path="url(#pae69140b00)">
     <use xlink:href="#m670fb79f86" x="57.6" y="307.31527" style="fill: #ff7f0e; stroke: #ff7f0e"/>
     <use xlink:href="#m670fb79f86" x="108.617143" y="283.897414" style="fill: #ff7f0e; stroke: #ff7f0e"/>
     <use xlink:href="#m670fb79f86" x="159.634286" y="260.479558" style="fill: #ff7f0e; stroke: #ff7f0e"/>
     <use xlink:href="#m670fb79f86" x="210.651429" y="237.061702" style="fill: #ff7f0e; stroke: #ff7f0e"/>
     <use xlink:href="#m670fb79f86" x="261.668571" y="213.643846" style="fill: #ff7f0e; stroke: #ff7f0e"/>
     <use xlink:href="#m670fb79f86" x="312.685714" y="190.22599" style="fill: #ff7f0e; stroke: #ff7f0e"/>
     <use xlink:href="#m670fb79f86" x="363.702857" y="166.808134" style="fill: #ff7f0e; stroke: #ff7f0e"/>
     <use xlink:href="#m670fb79f86" x="414.72" y="143.390278" style="fill: #ff7f0e; stroke: #ff7f0e"/>
    </g>
   </g>
   <g id="line2d_32">
    <path d="M 57.6 307.158221 
L 108.617143 283.293297 
L 159.634286 260.162842 
L 210.651429 236.500163 
L 261.668571 213.039729 
L 312.685714 189.696384 
L 363.702857 165.959194 
L 414.72 142.828739 
" clip-path="url(#pae69140b00)" style="fill: none; stroke: #ff7f0e; stroke-width: 1.5; stroke-linecap: square"/>
    <defs>
     <path id="m64c20c4a3c" d="M -0 4.242641 
L 2.545584 0 
L 0 -4.242641 
L -2.545584 -0 
z
" style="stroke: #ff7f0e; stroke-linejoin: miter"/>
    </defs>
    <g clip-path="url(#pae69140b00)">
     <use xlink:href="#m64c20c4a3c" x="57.6" y="307.158221" style="fill: #ff7f0e; stroke: #ff7f0e; stroke-linejoin: miter"/>
     <use xlink:href="#m64c20c4a3c" x="108.617143" y="283.293297" style="fill: #ff7f0e; stroke: #ff7f0e; stroke-linejoin: miter"/>
     <use xlink:href="#m64c20c4a3c" x="159.634286" y="260.162842" style="fill: #ff7f0e; stroke: #ff7f0e; stroke-linejoin: miter"/>
     <use xlink:href="#m64c20c4a3c" x="210.651429" y="236.500163" style="fill: #ff7f0e; stroke: #ff7f0e; stroke-linejoin: miter"/>
     <use xlink:href="#m64c20c4a3c" x="261.668571" y="213.039729" style="fill: #ff7f0e; stroke: #ff7f0e; stroke-linejoin: miter"/>
     <use xlink:href="#m64c20c4a3c" x="312.685714" y="189.696384" style="fill: #ff7f0e; stroke: #ff7f0e; stroke-linejoin: miter"/>
     <use xlink:href="#m64c20c4a3c" x="363.702857" y="165.959194" style="fill: #ff7f0e; stroke: #ff7f0e; stroke-linejoin: miter"/>
     <use xlink:href="#m64c20c4a3c" x="414.72" y="142.828739" style="fill: #ff7f0e; stroke: #ff7f0e; stroke-linejoin: miter"/>
    </g>
   </g>
   <g id="line2d_33">
    <path d="M 57.6 307.327381 
L 108.617143 286.038421 
L 159.634286 264.749461 
L 210.651429 243.717119 
L 261.668571 243.717119 
L 312.685714 243.717119 
L 363.702857 243.717119 
L 414.72 243.717119 
" clip-path="url(#pae69140b00)" style="fill: none; stroke-dasharray: 5.55,2.4; stroke-dashoffset: 0; stroke: #2ca02c; stroke-width: 1.5"/>
    <defs>
     <path id="m5bf3b6b8d3" d="M -3 3 
L 3 -3 
M -3 -3 
L 3 3 
" style="stroke: #2ca02c"/>
    </defs>
    <g clip-path="url(#pae69140b00)">
     <use xlink:href="#m5bf3b6b8d3" x="57.6" y="307.327381" style="fill: #2ca02c; stroke: #2ca02c"/>
     <use xlink:href="#m5bf3b6b8d3" x="108.617143" y="286.038421" style="fill: #2ca02c; stroke: #2ca02c"/>
     <use xlink:href="#m5bf3b6b8d3" x="159.634286" y="264.749461" style="fill: #2ca02c; stroke: #2ca02c"/>
     <use xlink:href="#m5bf3b6b8d3" x="210.651429" y="243.717119" style="fill: #2ca02c; stroke: #2ca02c"/>
     <use xlink:href="#m5bf3b6b8d3" x="261.668571" y="243.717119" style="fill: #2ca02c; stroke: #2ca02c"/>
     <use xlink:href="#m5bf3b6b8d3" x="312.685714" y="243.717119" style="fill: #2ca02c; stroke: #2ca02c"/>
     <use xlink:href="#m5bf3b6b8d3" x="363.702857" y="243.717119" style="fill: #2ca02c; stroke: #2ca02c"/>
     <use xlink:href="#m5bf3b6b8d3" x="414.72" y="243.717119" style="fill: #2ca02c; stroke: #2ca02c"/>
    </g>
   </g>
   <g id="line2d_34">
    <path d="M 57.6 307.27531 
L 108.617143 283.059118 
L 159.634286 259.949952 
L 210.651429 236.744986 
L 261.668571 238.650348 
L 312.685714 243.323274 
L 363.702857 243.365852 
L 414.72 247.634289 
" clip-path="url(#pae69140b00)" style="fill: none; stroke: #2ca02c; stroke-width: 1.5; stroke-linecap: square"/>
    <defs>
     <path id="m480e7340d7" d="M -0 4.242641 
L 2.545584 0 
L 0 -4.242641 
L -2.545584 -0 
z
" style="stroke: #2ca02c; stroke-linejoin: miter"/>
    </defs>
    <g clip-path="url(#pae69140b00)">
     <use xlink:href="#m480e7340d7" x="57.6" y="307.27531" style="fill: #2ca02c; stroke: #2ca02c; stroke-linejoin: miter"/>
     <use xlink:href="#m480e7340d7" x="108.617143" y="283.059118" style="fill: #2ca02c; stroke: #2ca02c; stroke-linejoin: miter"/>
     <use xlink:href="#m480e7340d7" x="159.634286" y="259.949952" style="fill: #2ca02c; stroke: #2ca02c; stroke-linejoin: miter"/>
     <use xlink:href="#m480e7340d7" x="210.651429" y="236.744986" style="fill: #2ca02c; stroke: #2ca02c; stroke-linejoin: miter"/>
     <use xlink:href="#m480e7340d7" x="261.668571" y="238.650348" style="fill: #2ca02c; stroke: #2ca02c; stroke-linejoin: miter"/>
     <use xlink:href="#m480e7340d7" x="312.685714" y="243.323274" style="fill: #2ca02c; stroke: #2ca02c; stroke-linejoin: miter"/>
     <use xlink:href="#m480e7340d7" x="363.702857" y="243.365852" style="fill: #2ca02c; stroke: #2ca02c; stroke-linejoin: miter"/>
     <use xlink:href="#m480e7340d7" x="414.72" y="247.634289" style="fill: #2ca02c; stroke: #2ca02c; stroke-linejoin: miter"/>
    </g>
   </g>
   <g id="line2d_35">
    <path d="M 57.6 306.937894 
L 108.617143 272.875558 
L 159.634286 238.813222 
L 210.651429 204.750886 
L 261.668571 170.68855 
L 312.685714 136.626214 
L 363.702857 102.563878 
L 414.72 68.501542 
" clip-path="url(#pae69140b00)" style="fill: none; stroke-dasharray: 5.55,2.4; stroke-dashoffset: 0; stroke: #d62728; stroke-width: 1.5"/>
    <defs>
     <path id="m5568f3dcc2" d="M -3 3 
L 3 -3 
M -3 -3 
L 3 3 
" style="stroke: #d62728"/>
    </defs>
    <g clip-path="url(#pae69140b00)">
     <use xlink:href="#m5568f3dcc2" x="57.6" y="306.937894" style="fill: #d62728; stroke: #d62728"/>
     <use xlink:href="#m5568f3dcc2" x="108.617143" y="272.875558" style="fill: #d62728; stroke: #d62728"/>
     <use xlink:href="#m5568f3dcc2" x="159.634286" y="238.813222" style="fill: #d62728; stroke: #d62728"/>
     <use xlink:href="#m5568f3dcc2" x="210.651429" y="204.750886" style="fill: #d62728; stroke: #d62728"/>
     <use xlink:href="#m5568f3dcc2" x="261.668571" y="170.68855" style="fill: #d62728; stroke: #d62728"/>
     <use xlink:href="#m5568f3dcc2" x="312.685714" y="136.626214" style="fill: #d62728; stroke: #d62728"/>
     <use xlink:href="#m5568f3dcc2" x="363.702857" y="102.563878" style="fill: #d62728; stroke: #d62728"/>
     <use xlink:href="#m5568f3dcc2" x="414.72" y="68.501542" style="fill: #d62728; stroke: #d62728"/>
    </g>
   </g>
   <g id="line2d_36">
    <path d="M 57.6 307.584 
L 108.617143 267.369155 
L 159.634286 237.553966 
L 210.651429 203.470341 
L 261.668571 169.333494 
L 312.685714 135.601137 
L 363.702857 101.528156 
L 414.72 67.27422 
" clip-path="url(#pae69140b00)" style="fill: none; stroke: #d62728; stroke-width: 1.5; stroke-linecap: square"/>
    <defs>
     <path id="m3f47689354" d="M -0 4.242641 
L 2.545584 0 
L 0 -4.242641 
L -2.545584 -0 
z
" style="stroke: #d62728; stroke-linejoin: miter"/>
    </defs>
    <g clip-path="url(#pae69140b00)">
     <use xlink:href="#m3f47689354" x="57.6" y="307.584" style="fill: #d62728; stroke: #d62728; stroke-linejoin: miter"/>
     <use xlink:href="#m3f47689354" x="108.617143" y="267.369155" style="fill: #d62728; stroke: #d62728; stroke-linejoin: miter"/>
     <use xlink:href="#m3f47689354" x="159.634286" y="237.553966" style="fill: #d62728; stroke: #d62728; stroke-linejoin: miter"/>
     <use xlink:href="#m3f47689354" x="210.651429" y="203.470341" style="fill: #d62728; stroke: #d62728; stroke-linejoin: miter"/>
     <use xlink:href="#m3f47689354" x="261.668571" y="169.333494" style="fill: #d62728; stroke: #d62728; stroke-linejoin: miter"/>
     <use xlink:href="#m3f47689354" x="312.685714" y="135.601137" style="fill: #d62728; stroke: #d62728; stroke-linejoin: miter"/>
     <use xlink:href="#m3f47689354" x="363.702857" y="101.528156" style="fill: #d62728; stroke: #d62728; stroke-linejoin: miter"/>
     <use xlink:href="#m3f47689354" x="414.72" y="67.27422" style="fill: #d62728; stroke: #d62728; stroke-linejoin: miter"/>
    </g>
   </g>
   <g id="patch_3">
    <path d="M 57.6 307.584 
L 57.6 41.472 
" style="fill: none; stroke: #000000; stroke-width: 0.8; stroke-linejoin: miter; stroke-linecap: square"/>
   </g>
   <g id="patch_4">
    <path d="M 414.72 307.584 
L 414.72 41.472 
" style="fill: none; stroke: #000000; stroke-width: 0.8; stroke-linejoin: miter; stroke-linecap: square"/>
   </g>
   <g id="patch_5">
    <path d="M 57.6 307.584 
L 414.72 307.584 
" style="fill: none; stroke: #000000; stroke-width: 0.8; stroke-linejoin: miter; stroke-linecap: square"/>
   </g>
   <g id="patch_6">
    <path d="M 57.6 41.472 
L 414.72 41.472 
" style="fill: none; stroke: #000000; stroke-width: 0.8; stroke-linejoin: miter; stroke-linecap: square"/>
   </g>
   <g id="text_17">
    <!-- Duration of queries sent to victim nameserver with -->
    <g transform="translate(95.397812 10.836813) scale(0.11 -0.11)">
     <defs>
      <path id="DejaVuSans-76" d="M 191 3500 
L 800 3500 
L 1894 563 
L 2988 3500 
L 3597 3500 
L 2284 0 
L 1503 0 
L 191 3500 
z
" transform="scale(0.015625)"/>
      <path id="DejaVuSans-77" d="M 269 3500 
L 844 3500 
L 1563 769 
L 2278 3500 
L 2956 3500 
L 3675 769 
L 4391 3500 
L 4966 3500 
L 4050 0 
L 3372 0 
L 2619 2869 
L 1863 0 
L 1184 0 
L 269 3500 
z
" transform="scale(0.015625)"/>
     </defs>
     <use xlink:href="#DejaVuSans-44"/>
     <use xlink:href="#DejaVuSans-75" x="77.001953"/>
     <use xlink:href="#DejaVuSans-72" x="140.380859"/>
     <use xlink:href="#DejaVuSans-61" x="181.494141"/>
     <use xlink:href="#DejaVuSans-74" x="242.773438"/>
     <use xlink:href="#DejaVuSans-69" x="281.982422"/>
     <use xlink:href="#DejaVuSans-6f" x="309.765625"/>
     <use xlink:href="#DejaVuSans-6e" x="370.947266"/>
     <use xlink:href="#DejaVuSans-20" x="434.326172"/>
     <use xlink:href="#DejaVuSans-6f" x="466.113281"/>
     <use xlink:href="#DejaVuSans-66" x="527.294922"/>
     <use xlink:href="#DejaVuSans-20" x="562.5"/>
     <use xlink:href="#DejaVuSans-71" x="594.287109"/>
     <use xlink:href="#DejaVuSans-75" x="657.763672"/>
     <use xlink:href="#DejaVuSans-65" x="721.142578"/>
     <use xlink:href="#DejaVuSans-72" x="782.666016"/>
     <use xlink:href="#DejaVuSans-69" x="823.779297"/>
     <use xlink:href="#DejaVuSans-65" x="851.5625"/>
     <use xlink:href="#DejaVuSans-73" x="913.085938"/>
     <use xlink:href="#DejaVuSans-20" x="965.185547"/>
     <use xlink:href="#DejaVuSans-73" x="996.972656"/>
     <use xlink:href="#DejaVuSans-65" x="1049.072266"/>
     <use xlink:href="#DejaVuSans-6e" x="1110.595703"/>
     <use xlink:href="#DejaVuSans-74" x="1173.974609"/>
     <use xlink:href="#DejaVuSans-20" x="1213.183594"/>
     <use xlink:href="#DejaVuSans-74" x="1244.970703"/>
     <use xlink:href="#DejaVuSans-6f" x="1284.179688"/>
     <use xlink:href="#DejaVuSans-20" x="1345.361328"/>
     <use xlink:href="#DejaVuSans-76" x="1377.148438"/>
     <use xlink:href="#DejaVuSans-69" x="1436.328125"/>
     <use xlink:href="#DejaVuSans-63" x="1464.111328"/>
     <use xlink:href="#DejaVuSans-74" x="1519.091797"/>
     <use xlink:href="#DejaVuSans-69" x="1558.300781"/>
     <use xlink:href="#DejaVuSans-6d" x="1586.083984"/>
     <use xlink:href="#DejaVuSans-20" x="1683.496094"/>
     <use xlink:href="#DejaVuSans-6e" x="1715.283203"/>
     <use xlink:href="#DejaVuSans-61" x="1778.662109"/>
     <use xlink:href="#DejaVuSans-6d" x="1839.941406"/>
     <use xlink:href="#DejaVuSans-65" x="1937.353516"/>
     <use xlink:href="#DejaVuSans-73" x="1998.876953"/>
     <use xlink:href="#DejaVuSans-65" x="2050.976562"/>
     <use xlink:href="#DejaVuSans-72" x="2112.5"/>
     <use xlink:href="#DejaVuSans-76" x="2153.613281"/>
     <use xlink:href="#DejaVuSans-65" x="2212.792969"/>
     <use xlink:href="#DejaVuSans-72" x="2274.316406"/>
     <use xlink:href="#DejaVuSans-20" x="2315.429688"/>
     <use xlink:href="#DejaVuSans-77" x="2347.216797"/>
     <use xlink:href="#DejaVuSans-69" x="2429.003906"/>
     <use xlink:href="#DejaVuSans-74" x="2456.787109"/>
     <use xlink:href="#DejaVuSans-68" x="2495.996094"/>
    </g>
    <!--  Sub+CNAME scrubbing+Delay (slow DNS)  -->
    <g transform="translate(116.508359 23.154406) scale(0.11 -0.11)">
     <defs>
      <path id="DejaVuSans-53" d="M 3425 4513 
L 3425 3897 
Q 3066 4069 2747 4153 
Q 2428 4238 2131 4238 
Q 1616 4238 1336 4038 
Q 1056 3838 1056 3469 
Q 1056 3159 1242 3001 
Q 1428 2844 1947 2747 
L 2328 2669 
Q 3034 2534 3370 2195 
Q 3706 1856 3706 1288 
Q 3706 609 3251 259 
Q 2797 -91 1919 -91 
Q 1588 -91 1214 -16 
Q 841 59 441 206 
L 441 856 
Q 825 641 1194 531 
Q 1563 422 1919 422 
Q 2459 422 2753 634 
Q 3047 847 3047 1241 
Q 3047 1584 2836 1778 
Q 2625 1972 2144 2069 
L 1759 2144 
Q 1053 2284 737 2584 
Q 422 2884 422 3419 
Q 422 4038 858 4394 
Q 1294 4750 2059 4750 
Q 2388 4750 2728 4690 
Q 3069 4631 3425 4513 
z
" transform="scale(0.015625)"/>
      <path id="DejaVuSans-62" d="M 3116 1747 
Q 3116 2381 2855 2742 
Q 2594 3103 2138 3103 
Q 1681 3103 1420 2742 
Q 1159 2381 1159 1747 
Q 1159 1113 1420 752 
Q 1681 391 2138 391 
Q 2594 391 2855 752 
Q 3116 1113 3116 1747 
z
M 1159 2969 
Q 1341 3281 1617 3432 
Q 1894 3584 2278 3584 
Q 2916 3584 3314 3078 
Q 3713 2572 3713 1747 
Q 3713 922 3314 415 
Q 2916 -91 2278 -91 
Q 1894 -91 1617 61 
Q 1341 213 1159 525 
L 1159 0 
L 581 0 
L 581 4863 
L 1159 4863 
L 1159 2969 
z
" transform="scale(0.015625)"/>
      <path id="DejaVuSans-2b" d="M 2944 4013 
L 2944 2272 
L 4684 2272 
L 4684 1741 
L 2944 1741 
L 2944 0 
L 2419 0 
L 2419 1741 
L 678 1741 
L 678 2272 
L 2419 2272 
L 2419 4013 
L 2944 4013 
z
" transform="scale(0.015625)"/>
      <path id="DejaVuSans-43" d="M 4122 4306 
L 4122 3641 
Q 3803 3938 3442 4084 
Q 3081 4231 2675 4231 
Q 1875 4231 1450 3742 
Q 1025 3253 1025 2328 
Q 1025 1406 1450 917 
Q 1875 428 2675 428 
Q 3081 428 3442 575 
Q 3803 722 4122 1019 
L 4122 359 
Q 3791 134 3420 21 
Q 3050 -91 2638 -91 
Q 1578 -91 968 557 
Q 359 1206 359 2328 
Q 359 3453 968 4101 
Q 1578 4750 2638 4750 
Q 3056 4750 3426 4639 
Q 3797 4528 4122 4306 
z
" transform="scale(0.015625)"/>
      <path id="DejaVuSans-4e" d="M 628 4666 
L 1478 4666 
L 3547 763 
L 3547 4666 
L 4159 4666 
L 4159 0 
L 3309 0 
L 1241 3903 
L 1241 0 
L 628 0 
L 628 4666 
z
" transform="scale(0.015625)"/>
      <path id="DejaVuSans-4d" d="M 628 4666 
L 1569 4666 
L 2759 1491 
L 3956 4666 
L 4897 4666 
L 4897 0 
L 4281 0 
L 4281 4097 
L 3078 897 
L 2444 897 
L 1241 4097 
L 1241 0 
L 628 0 
L 628 4666 
z
" transform="scale(0.015625)"/>
      <path id="DejaVuSans-45" d="M 628 4666 
L 3578 4666 
L 3578 4134 
L 1259 4134 
L 1259 2753 
L 3481 2753 
L 3481 2222 
L 1259 2222 
L 1259 531 
L 3634 531 
L 3634 0 
L 628 0 
L 628 4666 
z
" transform="scale(0.015625)"/>
      <path id="DejaVuSans-67" d="M 2906 1791 
Q 2906 2416 2648 2759 
Q 2391 3103 1925 3103 
Q 1463 3103 1205 2759 
Q 947 2416 947 1791 
Q 947 1169 1205 825 
Q 1463 481 1925 481 
Q 2391 481 2648 825 
Q 2906 1169 2906 1791 
z
M 3481 434 
Q 3481 -459 3084 -895 
Q 2688 -1331 1869 -1331 
Q 1566 -1331 1297 -1286 
Q 1028 -1241 775 -1147 
L 775 -588 
Q 1028 -725 1275 -790 
Q 1522 -856 1778 -856 
Q 2344 -856 2625 -561 
Q 2906 -266 2906 331 
L 2906 616 
Q 2728 306 2450 153 
Q 2172 0 1784 0 
Q 1141 0 747 490 
Q 353 981 353 1791 
Q 353 2603 747 3093 
Q 1141 3584 1784 3584 
Q 2172 3584 2450 3431 
Q 2728 3278 2906 2969 
L 2906 3500 
L 3481 3500 
L 3481 434 
z
" transform="scale(0.015625)"/>
     </defs>
     <use xlink:href="#DejaVuSans-20"/>
     <use xlink:href="#DejaVuSans-53" x="31.787109"/>
     <use xlink:href="#DejaVuSans-75" x="95.263672"/>
     <use xlink:href="#DejaVuSans-62" x="158.642578"/>
     <use xlink:href="#DejaVuSans-2b" x="222.119141"/>
     <use xlink:href="#DejaVuSans-43" x="305.908203"/>
     <use xlink:href="#DejaVuSans-4e" x="375.732422"/>
     <use xlink:href="#DejaVuSans-41" x="450.537109"/>
     <use xlink:href="#DejaVuSans-4d" x="518.945312"/>
     <use xlink:href="#DejaVuSans-45" x="605.224609"/>
     <use xlink:href="#DejaVuSans-20" x="668.408203"/>
     <use xlink:href="#DejaVuSans-73" x="700.195312"/>
     <use xlink:href="#DejaVuSans-63" x="752.294922"/>
     <use xlink:href="#DejaVuSans-72" x="807.275391"/>
     <use xlink:href="#DejaVuSans-75" x="848.388672"/>
     <use xlink:href="#DejaVuSans-62" x="911.767578"/>
     <use xlink:href="#DejaVuSans-62" x="975.244141"/>
     <use xlink:href="#DejaVuSans-69" x="1038.720703"/>
     <use xlink:href="#DejaVuSans-6e" x="1066.503906"/>
     <use xlink:href="#DejaVuSans-67" x="1129.882812"/>
     <use xlink:href="#DejaVuSans-2b" x="1193.359375"/>
     <use xlink:href="#DejaVuSans-44" x="1277.148438"/>
     <use xlink:href="#DejaVuSans-65" x="1354.150391"/>
     <use xlink:href="#DejaVuSans-6c" x="1415.673828"/>
     <use xlink:href="#DejaVuSans-61" x="1443.457031"/>
     <use xlink:href="#DejaVuSans-79" x="1504.736328"/>
     <use xlink:href="#DejaVuSans-20" x="1563.916016"/>
     <use xlink:href="#DejaVuSans-28" x="1595.703125"/>
     <use xlink:href="#DejaVuSans-73" x="1634.716797"/>
     <use xlink:href="#DejaVuSans-6c" x="1686.816406"/>
     <use xlink:href="#DejaVuSans-6f" x="1714.599609"/>
     <use xlink:href="#DejaVuSans-77" x="1775.78125"/>
     <use xlink:href="#DejaVuSans-20" x="1857.568359"/>
     <use xlink:href="#DejaVuSans-44" x="1889.355469"/>
     <use xlink:href="#DejaVuSans-4e" x="1966.357422"/>
     <use xlink:href="#DejaVuSans-53" x="2041.162109"/>
     <use xlink:href="#DejaVuSans-29" x="2104.638672"/>
     <use xlink:href="#DejaVuSans-20" x="2143.652344"/>
    </g>
    <!--  Fixed values : CNAME_length=17 and  with QMIN disabled -->
    <g transform="translate(74.629297 35.472) scale(0.11 -0.11)">
     <defs>
      <path id="DejaVuSans-46" d="M 628 4666 
L 3309 4666 
L 3309 4134 
L 1259 4134 
L 1259 2759 
L 3109 2759 
L 3109 2228 
L 1259 2228 
L 1259 0 
L 628 0 
L 628 4666 
z
" transform="scale(0.015625)"/>
      <path id="DejaVuSans-78" d="M 3513 3500 
L 2247 1797 
L 3578 0 
L 2900 0 
L 1881 1375 
L 863 0 
L 184 0 
L 1544 1831 
L 300 3500 
L 978 3500 
L 1906 2253 
L 2834 3500 
L 3513 3500 
z
" transform="scale(0.015625)"/>
      <path id="DejaVuSans-3a" d="M 750 794 
L 1409 794 
L 1409 0 
L 750 0 
L 750 794 
z
M 750 3309 
L 1409 3309 
L 1409 2516 
L 750 2516 
L 750 3309 
z
" transform="scale(0.015625)"/>
      <path id="DejaVuSans-5f" d="M 3263 -1063 
L 3263 -1509 
L -63 -1509 
L -63 -1063 
L 3263 -1063 
z
" transform="scale(0.015625)"/>
      <path id="DejaVuSans-3d" d="M 678 2906 
L 4684 2906 
L 4684 2381 
L 678 2381 
L 678 2906 
z
M 678 1631 
L 4684 1631 
L 4684 1100 
L 678 1100 
L 678 1631 
z
" transform="scale(0.015625)"/>
      <path id="DejaVuSans-37" d="M 525 4666 
L 3525 4666 
L 3525 4397 
L 1831 0 
L 1172 0 
L 2766 4134 
L 525 4134 
L 525 4666 
z
" transform="scale(0.015625)"/>
      <path id="DejaVuSans-51" d="M 2522 4238 
Q 1834 4238 1429 3725 
Q 1025 3213 1025 2328 
Q 1025 1447 1429 934 
Q 1834 422 2522 422 
Q 3209 422 3611 934 
Q 4013 1447 4013 2328 
Q 4013 3213 3611 3725 
Q 3209 4238 2522 4238 
z
M 3406 84 
L 4238 -825 
L 3475 -825 
L 2784 -78 
Q 2681 -84 2626 -87 
Q 2572 -91 2522 -91 
Q 1538 -91 948 567 
Q 359 1225 359 2328 
Q 359 3434 948 4092 
Q 1538 4750 2522 4750 
Q 3503 4750 4090 4092 
Q 4678 3434 4678 2328 
Q 4678 1516 4351 937 
Q 4025 359 3406 84 
z
" transform="scale(0.015625)"/>
      <path id="DejaVuSans-49" d="M 628 4666 
L 1259 4666 
L 1259 0 
L 628 0 
L 628 4666 
z
" transform="scale(0.015625)"/>
     </defs>
     <use xlink:href="#DejaVuSans-20"/>
     <use xlink:href="#DejaVuSans-46" x="31.787109"/>
     <use xlink:href="#DejaVuSans-69" x="82.056641"/>
     <use xlink:href="#DejaVuSans-78" x="109.839844"/>
     <use xlink:href="#DejaVuSans-65" x="165.894531"/>
     <use xlink:href="#DejaVuSans-64" x="227.417969"/>
     <use xlink:href="#DejaVuSans-20" x="290.894531"/>
     <use xlink:href="#DejaVuSans-76" x="322.681641"/>
     <use xlink:href="#DejaVuSans-61" x="381.861328"/>
     <use xlink:href="#DejaVuSans-6c" x="443.140625"/>
     <use xlink:href="#DejaVuSans-75" x="470.923828"/>
     <use xlink:href="#DejaVuSans-65" x="534.302734"/>
     <use xlink:href="#DejaVuSans-73" x="595.826172"/>
     <use xlink:href="#DejaVuSans-20" x="647.925781"/>
     <use xlink:href="#DejaVuSans-3a" x="679.712891"/>
     <use xlink:href="#DejaVuSans-20" x="713.404297"/>
     <use xlink:href="#DejaVuSans-43" x="745.191406"/>
     <use xlink:href="#DejaVuSans-4e" x="815.015625"/>
     <use xlink:href="#DejaVuSans-41" x="889.820312"/>
     <use xlink:href="#DejaVuSans-4d" x="958.228516"/>
     <use xlink:href="#DejaVuSans-45" x="1044.507812"/>
     <use xlink:href="#DejaVuSans-5f" x="1107.691406"/>
     <use xlink:href="#DejaVuSans-6c" x="1157.691406"/>
     <use xlink:href="#DejaVuSans-65" x="1185.474609"/>
     <use xlink:href="#DejaVuSans-6e" x="1246.998047"/>
     <use xlink:href="#DejaVuSans-67" x="1310.376953"/>
     <use xlink:href="#DejaVuSans-74" x="1373.853516"/>
     <use xlink:href="#DejaVuSans-68" x="1413.0625"/>
     <use xlink:href="#DejaVuSans-3d" x="1476.441406"/>
     <use xlink:href="#DejaVuSans-31" x="1560.230469"/>
     <use xlink:href="#DejaVuSans-37" x="1623.853516"/>
     <use xlink:href="#DejaVuSans-20" x="1687.476562"/>
     <use xlink:href="#DejaVuSans-61" x="1719.263672"/>
     <use xlink:href="#DejaVuSans-6e" x="1780.542969"/>
     <use xlink:href="#DejaVuSans-64" x="1843.921875"/>
     <use xlink:href="#DejaVuSans-20" x="1907.398438"/>
     <use xlink:href="#DejaVuSans-20" x="1939.185547"/>
     <use xlink:href="#DejaVuSans-77" x="1970.972656"/>
     <use xlink:href="#DejaVuSans-69" x="2052.759766"/>
     <use xlink:href="#DejaVuSans-74" x="2080.542969"/>
     <use xlink:href="#DejaVuSans-68" x="2119.751953"/>
     <use xlink:href="#DejaVuSans-20" x="2183.130859"/>
     <use xlink:href="#DejaVuSans-51" x="2214.917969"/>
     <use xlink:href="#DejaVuSans-4d" x="2293.628906"/>
     <use xlink:href="#DejaVuSans-49" x="2379.908203"/>
     <use xlink:href="#DejaVuSans-4e" x="2409.400391"/>
     <use xlink:href="#DejaVuSans-20" x="2484.205078"/>
     <use xlink:href="#DejaVuSans-64" x="2515.992188"/>
     <use xlink:href="#DejaVuSans-69" x="2579.46875"/>
     <use xlink:href="#DejaVuSans-73" x="2607.251953"/>
     <use xlink:href="#DejaVuSans-61" x="2659.351562"/>
     <use xlink:href="#DejaVuSans-62" x="2720.630859"/>
     <use xlink:href="#DejaVuSans-6c" x="2784.107422"/>
     <use xlink:href="#DejaVuSans-65" x="2811.890625"/>
     <use xlink:href="#DejaVuSans-64" x="2873.414062"/>
    </g>
   </g>
   <g id="legend_1">
    <g id="patch_7">
     <path d="M 64.6 166.897 
L 210.184375 166.897 
Q 212.184375 166.897 212.184375 164.897 
L 212.184375 48.472 
Q 212.184375 46.472 210.184375 46.472 
L 64.6 46.472 
Q 62.6 46.472 62.6 48.472 
L 62.6 164.897 
Q 62.6 166.897 64.6 166.897 
z
" style="fill: #ffffff; opacity: 0.8; stroke: #cccccc; stroke-linejoin: miter"/>
    </g>
    <g id="line2d_37">
     <path d="M 66.6 54.570438 
L 76.6 54.570438 
L 86.6 54.570438 
" style="fill: none; stroke-dasharray: 5.55,2.4; stroke-dashoffset: 0; stroke: #1f77b4; stroke-width: 1.5"/>
     <g>
      <use xlink:href="#mc2998ec0b0" x="76.6" y="54.570438" style="fill: #1f77b4; stroke: #1f77b4"/>
     </g>
    </g>
    <g id="text_18">
     <!-- Model Unbound 1.10.0 -->
     <g transform="translate(94.6 58.070438) scale(0.1 -0.1)">
      <defs>
       <path id="DejaVuSans-55" d="M 556 4666 
L 1191 4666 
L 1191 1831 
Q 1191 1081 1462 751 
Q 1734 422 2344 422 
Q 2950 422 3222 751 
Q 3494 1081 3494 1831 
L 3494 4666 
L 4128 4666 
L 4128 1753 
Q 4128 841 3676 375 
Q 3225 -91 2344 -91 
Q 1459 -91 1007 375 
Q 556 841 556 1753 
L 556 4666 
z
" transform="scale(0.015625)"/>
       <path id="DejaVuSans-2e" d="M 684 794 
L 1344 794 
L 1344 0 
L 684 0 
L 684 794 
z
" transform="scale(0.015625)"/>
      </defs>
      <use xlink:href="#DejaVuSans-4d"/>
      <use xlink:href="#DejaVuSans-6f" x="86.279297"/>
      <use xlink:href="#DejaVuSans-64" x="147.460938"/>
      <use xlink:href="#DejaVuSans-65" x="210.9375"/>
      <use xlink:href="#DejaVuSans-6c" x="272.460938"/>
      <use xlink:href="#DejaVuSans-20" x="300.244141"/>
      <use xlink:href="#DejaVuSans-55" x="332.03125"/>
      <use xlink:href="#DejaVuSans-6e" x="405.224609"/>
      <use xlink:href="#DejaVuSans-62" x="468.603516"/>
      <use xlink:href="#DejaVuSans-6f" x="532.080078"/>
      <use xlink:href="#DejaVuSans-75" x="593.261719"/>
      <use xlink:href="#DejaVuSans-6e" x="656.640625"/>
      <use xlink:href="#DejaVuSans-64" x="720.019531"/>
      <use xlink:href="#DejaVuSans-20" x="783.496094"/>
      <use xlink:href="#DejaVuSans-31" x="815.283203"/>
      <use xlink:href="#DejaVuSans-2e" x="878.90625"/>
      <use xlink:href="#DejaVuSans-31" x="910.693359"/>
      <use xlink:href="#DejaVuSans-30" x="974.316406"/>
      <use xlink:href="#DejaVuSans-2e" x="1037.939453"/>
      <use xlink:href="#DejaVuSans-30" x="1069.726562"/>
     </g>
    </g>
    <g id="line2d_38">
     <path d="M 66.6 69.248563 
L 76.6 69.248563 
L 86.6 69.248563 
" style="fill: none; stroke: #1f77b4; stroke-width: 1.5; stroke-linecap: square"/>
     <g>
      <use xlink:href="#md3407d0a42" x="76.6" y="69.248563" style="fill: #1f77b4; stroke: #1f77b4; stroke-linejoin: miter"/>
     </g>
    </g>
    <g id="text_19">
     <!-- Unbound 1.10.0 -->
     <g transform="translate(94.6 72.748563) scale(0.1 -0.1)">
      <use xlink:href="#DejaVuSans-55"/>
      <use xlink:href="#DejaVuSans-6e" x="73.193359"/>
      <use xlink:href="#DejaVuSans-62" x="136.572266"/>
      <use xlink:href="#DejaVuSans-6f" x="200.048828"/>
      <use xlink:href="#DejaVuSans-75" x="261.230469"/>
      <use xlink:href="#DejaVuSans-6e" x="324.609375"/>
      <use xlink:href="#DejaVuSans-64" x="387.988281"/>
      <use xlink:href="#DejaVuSans-20" x="451.464844"/>
      <use xlink:href="#DejaVuSans-31" x="483.251953"/>
      <use xlink:href="#DejaVuSans-2e" x="546.875"/>
      <use xlink:href="#DejaVuSans-31" x="578.662109"/>
      <use xlink:href="#DejaVuSans-30" x="642.285156"/>
      <use xlink:href="#DejaVuSans-2e" x="705.908203"/>
      <use xlink:href="#DejaVuSans-30" x="737.695312"/>
     </g>
    </g>
    <g id="line2d_39">
     <path d="M 66.6 83.926688 
L 76.6 83.926688 
L 86.6 83.926688 
" style="fill: none; stroke-dasharray: 5.55,2.4; stroke-dashoffset: 0; stroke: #ff7f0e; stroke-width: 1.5"/>
     <g>
      <use xlink:href="#m670fb79f86" x="76.6" y="83.926688" style="fill: #ff7f0e; stroke: #ff7f0e"/>
     </g>
    </g>
    <g id="text_20">
     <!-- Model Unbound 1.16.0 -->
     <g transform="translate(94.6 87.426688) scale(0.1 -0.1)">
      <use xlink:href="#DejaVuSans-4d"/>
      <use xlink:href="#DejaVuSans-6f" x="86.279297"/>
      <use xlink:href="#DejaVuSans-64" x="147.460938"/>
      <use xlink:href="#DejaVuSans-65" x="210.9375"/>
      <use xlink:href="#DejaVuSans-6c" x="272.460938"/>
      <use xlink:href="#DejaVuSans-20" x="300.244141"/>
      <use xlink:href="#DejaVuSans-55" x="332.03125"/>
      <use xlink:href="#DejaVuSans-6e" x="405.224609"/>
      <use xlink:href="#DejaVuSans-62" x="468.603516"/>
      <use xlink:href="#DejaVuSans-6f" x="532.080078"/>
      <use xlink:href="#DejaVuSans-75" x="593.261719"/>
      <use xlink:href="#DejaVuSans-6e" x="656.640625"/>
      <use xlink:href="#DejaVuSans-64" x="720.019531"/>
      <use xlink:href="#DejaVuSans-20" x="783.496094"/>
      <use xlink:href="#DejaVuSans-31" x="815.283203"/>
      <use xlink:href="#DejaVuSans-2e" x="878.90625"/>
      <use xlink:href="#DejaVuSans-31" x="910.693359"/>
      <use xlink:href="#DejaVuSans-36" x="974.316406"/>
      <use xlink:href="#DejaVuSans-2e" x="1037.939453"/>
      <use xlink:href="#DejaVuSans-30" x="1069.726562"/>
     </g>
    </g>
    <g id="line2d_40">
     <path d="M 66.6 98.604813 
L 76.6 98.604813 
L 86.6 98.604813 
" style="fill: none; stroke: #ff7f0e; stroke-width: 1.5; stroke-linecap: square"/>
     <g>
      <use xlink:href="#m64c20c4a3c" x="76.6" y="98.604813" style="fill: #ff7f0e; stroke: #ff7f0e; stroke-linejoin: miter"/>
     </g>
    </g>
    <g id="text_21">
     <!-- Unbound 1.16.0 -->
     <g transform="translate(94.6 102.104813) scale(0.1 -0.1)">
      <use xlink:href="#DejaVuSans-55"/>
      <use xlink:href="#DejaVuSans-6e" x="73.193359"/>
      <use xlink:href="#DejaVuSans-62" x="136.572266"/>
      <use xlink:href="#DejaVuSans-6f" x="200.048828"/>
      <use xlink:href="#DejaVuSans-75" x="261.230469"/>
      <use xlink:href="#DejaVuSans-6e" x="324.609375"/>
      <use xlink:href="#DejaVuSans-64" x="387.988281"/>
      <use xlink:href="#DejaVuSans-20" x="451.464844"/>
      <use xlink:href="#DejaVuSans-31" x="483.251953"/>
      <use xlink:href="#DejaVuSans-2e" x="546.875"/>
      <use xlink:href="#DejaVuSans-31" x="578.662109"/>
      <use xlink:href="#DejaVuSans-36" x="642.285156"/>
      <use xlink:href="#DejaVuSans-2e" x="705.908203"/>
      <use xlink:href="#DejaVuSans-30" x="737.695312"/>
     </g>
    </g>
    <g id="line2d_41">
     <path d="M 66.6 113.282938 
L 76.6 113.282938 
L 86.6 113.282938 
" style="fill: none; stroke-dasharray: 5.55,2.4; stroke-dashoffset: 0; stroke: #2ca02c; stroke-width: 1.5"/>
     <g>
      <use xlink:href="#m5bf3b6b8d3" x="76.6" y="113.282938" style="fill: #2ca02c; stroke: #2ca02c"/>
     </g>
    </g>
    <g id="text_22">
     <!-- Model PowerDNS 4.7.0 -->
     <g transform="translate(94.6 116.782938) scale(0.1 -0.1)">
      <defs>
       <path id="DejaVuSans-50" d="M 1259 4147 
L 1259 2394 
L 2053 2394 
Q 2494 2394 2734 2622 
Q 2975 2850 2975 3272 
Q 2975 3691 2734 3919 
Q 2494 4147 2053 4147 
L 1259 4147 
z
M 628 4666 
L 2053 4666 
Q 2838 4666 3239 4311 
Q 3641 3956 3641 3272 
Q 3641 2581 3239 2228 
Q 2838 1875 2053 1875 
L 1259 1875 
L 1259 0 
L 628 0 
L 628 4666 
z
" transform="scale(0.015625)"/>
      </defs>
      <use xlink:href="#DejaVuSans-4d"/>
      <use xlink:href="#DejaVuSans-6f" x="86.279297"/>
      <use xlink:href="#DejaVuSans-64" x="147.460938"/>
      <use xlink:href="#DejaVuSans-65" x="210.9375"/>
      <use xlink:href="#DejaVuSans-6c" x="272.460938"/>
      <use xlink:href="#DejaVuSans-20" x="300.244141"/>
      <use xlink:href="#DejaVuSans-50" x="332.03125"/>
      <use xlink:href="#DejaVuSans-6f" x="388.708984"/>
      <use xlink:href="#DejaVuSans-77" x="449.890625"/>
      <use xlink:href="#DejaVuSans-65" x="531.677734"/>
      <use xlink:href="#DejaVuSans-72" x="593.201172"/>
      <use xlink:href="#DejaVuSans-44" x="634.314453"/>
      <use xlink:href="#DejaVuSans-4e" x="711.316406"/>
      <use xlink:href="#DejaVuSans-53" x="786.121094"/>
      <use xlink:href="#DejaVuSans-20" x="849.597656"/>
      <use xlink:href="#DejaVuSans-34" x="881.384766"/>
      <use xlink:href="#DejaVuSans-2e" x="945.007812"/>
      <use xlink:href="#DejaVuSans-37" x="976.794922"/>
      <use xlink:href="#DejaVuSans-2e" x="1040.417969"/>
      <use xlink:href="#DejaVuSans-30" x="1072.205078"/>
     </g>
    </g>
    <g id="line2d_42">
     <path d="M 66.6 127.961063 
L 76.6 127.961063 
L 86.6 127.961063 
" style="fill: none; stroke: #2ca02c; stroke-width: 1.5; stroke-linecap: square"/>
     <g>
      <use xlink:href="#m480e7340d7" x="76.6" y="127.961063" style="fill: #2ca02c; stroke: #2ca02c; stroke-linejoin: miter"/>
     </g>
    </g>
    <g id="text_23">
     <!-- PowerDNS 4.7.3 -->
     <g transform="translate(94.6 131.461063) scale(0.1 -0.1)">
      <defs>
       <path id="DejaVuSans-33" d="M 2597 2516 
Q 3050 2419 3304 2112 
Q 3559 1806 3559 1356 
Q 3559 666 3084 287 
Q 2609 -91 1734 -91 
Q 1441 -91 1130 -33 
Q 819 25 488 141 
L 488 750 
Q 750 597 1062 519 
Q 1375 441 1716 441 
Q 2309 441 2620 675 
Q 2931 909 2931 1356 
Q 2931 1769 2642 2001 
Q 2353 2234 1838 2234 
L 1294 2234 
L 1294 2753 
L 1863 2753 
Q 2328 2753 2575 2939 
Q 2822 3125 2822 3475 
Q 2822 3834 2567 4026 
Q 2313 4219 1838 4219 
Q 1578 4219 1281 4162 
Q 984 4106 628 3988 
L 628 4550 
Q 988 4650 1302 4700 
Q 1616 4750 1894 4750 
Q 2613 4750 3031 4423 
Q 3450 4097 3450 3541 
Q 3450 3153 3228 2886 
Q 3006 2619 2597 2516 
z
" transform="scale(0.015625)"/>
      </defs>
      <use xlink:href="#DejaVuSans-50"/>
      <use xlink:href="#DejaVuSans-6f" x="56.677734"/>
      <use xlink:href="#DejaVuSans-77" x="117.859375"/>
      <use xlink:href="#DejaVuSans-65" x="199.646484"/>
      <use xlink:href="#DejaVuSans-72" x="261.169922"/>
      <use xlink:href="#DejaVuSans-44" x="302.283203"/>
      <use xlink:href="#DejaVuSans-4e" x="379.285156"/>
      <use xlink:href="#DejaVuSans-53" x="454.089844"/>
      <use xlink:href="#DejaVuSans-20" x="517.566406"/>
      <use xlink:href="#DejaVuSans-34" x="549.353516"/>
      <use xlink:href="#DejaVuSans-2e" x="612.976562"/>
      <use xlink:href="#DejaVuSans-37" x="644.763672"/>
      <use xlink:href="#DejaVuSans-2e" x="708.386719"/>
      <use xlink:href="#DejaVuSans-33" x="740.173828"/>
     </g>
    </g>
    <g id="line2d_43">
     <path d="M 66.6 142.639188 
L 76.6 142.639188 
L 86.6 142.639188 
" style="fill: none; stroke-dasharray: 5.55,2.4; stroke-dashoffset: 0; stroke: #d62728; stroke-width: 1.5"/>
     <g>
      <use xlink:href="#m5568f3dcc2" x="76.6" y="142.639188" style="fill: #d62728; stroke: #d62728"/>
     </g>
    </g>
    <g id="text_24">
     <!-- Model BIND 9.18.4 -->
     <g transform="translate(94.6 146.139188) scale(0.1 -0.1)">
      <defs>
       <path id="DejaVuSans-42" d="M 1259 2228 
L 1259 519 
L 2272 519 
Q 2781 519 3026 730 
Q 3272 941 3272 1375 
Q 3272 1813 3026 2020 
Q 2781 2228 2272 2228 
L 1259 2228 
z
M 1259 4147 
L 1259 2741 
L 2194 2741 
Q 2656 2741 2882 2914 
Q 3109 3088 3109 3444 
Q 3109 3797 2882 3972 
Q 2656 4147 2194 4147 
L 1259 4147 
z
M 628 4666 
L 2241 4666 
Q 2963 4666 3353 4366 
Q 3744 4066 3744 3513 
Q 3744 3084 3544 2831 
Q 3344 2578 2956 2516 
Q 3422 2416 3680 2098 
Q 3938 1781 3938 1306 
Q 3938 681 3513 340 
Q 3088 0 2303 0 
L 628 0 
L 628 4666 
z
" transform="scale(0.015625)"/>
       <path id="DejaVuSans-39" d="M 703 97 
L 703 672 
Q 941 559 1184 500 
Q 1428 441 1663 441 
Q 2288 441 2617 861 
Q 2947 1281 2994 2138 
Q 2813 1869 2534 1725 
Q 2256 1581 1919 1581 
Q 1219 1581 811 2004 
Q 403 2428 403 3163 
Q 403 3881 828 4315 
Q 1253 4750 1959 4750 
Q 2769 4750 3195 4129 
Q 3622 3509 3622 2328 
Q 3622 1225 3098 567 
Q 2575 -91 1691 -91 
Q 1453 -91 1209 -44 
Q 966 3 703 97 
z
M 1959 2075 
Q 2384 2075 2632 2365 
Q 2881 2656 2881 3163 
Q 2881 3666 2632 3958 
Q 2384 4250 1959 4250 
Q 1534 4250 1286 3958 
Q 1038 3666 1038 3163 
Q 1038 2656 1286 2365 
Q 1534 2075 1959 2075 
z
" transform="scale(0.015625)"/>
      </defs>
      <use xlink:href="#DejaVuSans-4d"/>
      <use xlink:href="#DejaVuSans-6f" x="86.279297"/>
      <use xlink:href="#DejaVuSans-64" x="147.460938"/>
      <use xlink:href="#DejaVuSans-65" x="210.9375"/>
      <use xlink:href="#DejaVuSans-6c" x="272.460938"/>
      <use xlink:href="#DejaVuSans-20" x="300.244141"/>
      <use xlink:href="#DejaVuSans-42" x="332.03125"/>
      <use xlink:href="#DejaVuSans-49" x="400.634766"/>
      <use xlink:href="#DejaVuSans-4e" x="430.126953"/>
      <use xlink:href="#DejaVuSans-44" x="504.931641"/>
      <use xlink:href="#DejaVuSans-20" x="581.933594"/>
      <use xlink:href="#DejaVuSans-39" x="613.720703"/>
      <use xlink:href="#DejaVuSans-2e" x="677.34375"/>
      <use xlink:href="#DejaVuSans-31" x="709.130859"/>
      <use xlink:href="#DejaVuSans-38" x="772.753906"/>
      <use xlink:href="#DejaVuSans-2e" x="836.376953"/>
      <use xlink:href="#DejaVuSans-34" x="868.164062"/>
     </g>
    </g>
    <g id="line2d_44">
     <path d="M 66.6 157.317313 
L 76.6 157.317313 
L 86.6 157.317313 
" style="fill: none; stroke: #d62728; stroke-width: 1.5; stroke-linecap: square"/>
     <g>
      <use xlink:href="#m3f47689354" x="76.6" y="157.317313" style="fill: #d62728; stroke: #d62728; stroke-linejoin: miter"/>
     </g>
    </g>
    <g id="text_25">
     <!-- BIND 9.18.4 -->
     <g transform="translate(94.6 160.817313) scale(0.1 -0.1)">
      <use xlink:href="#DejaVuSans-42"/>
      <use xlink:href="#DejaVuSans-49" x="68.603516"/>
      <use xlink:href="#DejaVuSans-4e" x="98.095703"/>
      <use xlink:href="#DejaVuSans-44" x="172.900391"/>
      <use xlink:href="#DejaVuSans-20" x="249.902344"/>
      <use xlink:href="#DejaVuSans-39" x="281.689453"/>
      <use xlink:href="#DejaVuSans-2e" x="345.3125"/>
      <use xlink:href="#DejaVuSans-31" x="377.099609"/>
      <use xlink:href="#DejaVuSans-38" x="440.722656"/>
      <use xlink:href="#DejaVuSans-2e" x="504.345703"/>
      <use xlink:href="#DejaVuSans-34" x="536.132812"/>
     </g>
    </g>
   </g>
  </g>
 </g>
 <defs>
  <clipPath id="pae69140b00">
   <rect x="57.6" y="41.472" width="357.12" height="266.112"/>
  </clipPath>
 </defs>
</svg>
