<?xml version="1.0" encoding="utf-8" standalone="no"?>
<!DOCTYPE svg PUBLIC "-//W3C//DTD SVG 1.1//EN"
  "http://www.w3.org/Graphics/SVG/1.1/DTD/svg11.dtd">
<svg xmlns:xlink="http://www.w3.org/1999/xlink" width="460.8pt" height="345.6pt" viewBox="0 0 460.8 345.6" xmlns="http://www.w3.org/2000/svg" version="1.1">
 <metadata>
  <rdf:RDF xmlns:dc="http://purl.org/dc/elements/1.1/" xmlns:cc="http://creativecommons.org/ns#" xmlns:rdf="http://www.w3.org/1999/02/22-rdf-syntax-ns#">
   <cc:Work>
    <dc:type rdf:resource="http://purl.org/dc/dcmitype/StillImage"/>
    <dc:date>2022-11-24T14:28:03.450299</dc:date>
    <dc:format>image/svg+xml</dc:format>
    <dc:creator>
     <cc:Agent>
      <dc:title>Matplotlib v3.6.1, https://matplotlib.org/</dc:title>
     </cc:Agent>
    </dc:creator>
   </cc:Work>
  </rdf:RDF>
 </metadata>
 <defs>
  <style type="text/css">*{stroke-linejoin: round; stroke-linecap: butt}</style>
 </defs>
 <g id="figure_1">
  <g id="patch_1">
   <path d="M 0 345.6 
L 460.8 345.6 
L 460.8 0 
L 0 0 
z
" style="fill: #ffffff"/>
  </g>
  <g id="axes_1">
   <g id="patch_2">
    <path d="M 57.6 307.584 
L 414.72 307.584 
L 414.72 41.472 
L 57.6 41.472 
z
" style="fill: #ffffff"/>
   </g>
   <g id="matplotlib.axis_1">
    <g id="xtick_1">
     <g id="line2d_1">
      <path d="M 57.6 307.584 
L 57.6 41.472 
" clip-path="url(#p076d2fb50f)" style="fill: none; stroke: #b0b0b0; stroke-width: 0.8; stroke-linecap: square"/>
     </g>
     <g id="line2d_2">
      <defs>
       <path id="m2fe693f304" d="M 0 0 
L 0 3.5 
" style="stroke: #000000; stroke-width: 0.8"/>
      </defs>
      <g>
       <use xlink:href="#m2fe693f304" x="57.6" y="307.584" style="stroke: #000000; stroke-width: 0.8"/>
      </g>
     </g>
     <g id="text_1">
      <!-- 0 -->
      <g transform="translate(54.41875 322.182437) scale(0.1 -0.1)">
       <defs>
        <path id="DejaVuSans-30" d="M 2034 4250 
Q 1547 4250 1301 3770 
Q 1056 3291 1056 2328 
Q 1056 1369 1301 889 
Q 1547 409 2034 409 
Q 2525 409 2770 889 
Q 3016 1369 3016 2328 
Q 3016 3291 2770 3770 
Q 2525 4250 2034 4250 
z
M 2034 4750 
Q 2819 4750 3233 4129 
Q 3647 3509 3647 2328 
Q 3647 1150 3233 529 
Q 2819 -91 2034 -91 
Q 1250 -91 836 529 
Q 422 1150 422 2328 
Q 422 3509 836 4129 
Q 1250 4750 2034 4750 
z
" transform="scale(0.015625)"/>
       </defs>
       <use xlink:href="#DejaVuSans-30"/>
      </g>
     </g>
    </g>
    <g id="xtick_2">
     <g id="line2d_3">
      <path d="M 105.216 307.584 
L 105.216 41.472 
" clip-path="url(#p076d2fb50f)" style="fill: none; stroke: #b0b0b0; stroke-width: 0.8; stroke-linecap: square"/>
     </g>
     <g id="line2d_4">
      <g>
       <use xlink:href="#m2fe693f304" x="105.216" y="307.584" style="stroke: #000000; stroke-width: 0.8"/>
      </g>
     </g>
     <g id="text_2">
      <!-- 200 -->
      <g transform="translate(95.67225 322.182437) scale(0.1 -0.1)">
       <defs>
        <path id="DejaVuSans-32" d="M 1228 531 
L 3431 531 
L 3431 0 
L 469 0 
L 469 531 
Q 828 903 1448 1529 
Q 2069 2156 2228 2338 
Q 2531 2678 2651 2914 
Q 2772 3150 2772 3378 
Q 2772 3750 2511 3984 
Q 2250 4219 1831 4219 
Q 1534 4219 1204 4116 
Q 875 4013 500 3803 
L 500 4441 
Q 881 4594 1212 4672 
Q 1544 4750 1819 4750 
Q 2544 4750 2975 4387 
Q 3406 4025 3406 3419 
Q 3406 3131 3298 2873 
Q 3191 2616 2906 2266 
Q 2828 2175 2409 1742 
Q 1991 1309 1228 531 
z
" transform="scale(0.015625)"/>
       </defs>
       <use xlink:href="#DejaVuSans-32"/>
       <use xlink:href="#DejaVuSans-30" x="63.623047"/>
       <use xlink:href="#DejaVuSans-30" x="127.246094"/>
      </g>
     </g>
    </g>
    <g id="xtick_3">
     <g id="line2d_5">
      <path d="M 152.832 307.584 
L 152.832 41.472 
" clip-path="url(#p076d2fb50f)" style="fill: none; stroke: #b0b0b0; stroke-width: 0.8; stroke-linecap: square"/>
     </g>
     <g id="line2d_6">
      <g>
       <use xlink:href="#m2fe693f304" x="152.832" y="307.584" style="stroke: #000000; stroke-width: 0.8"/>
      </g>
     </g>
     <g id="text_3">
      <!-- 400 -->
      <g transform="translate(143.28825 322.182437) scale(0.1 -0.1)">
       <defs>
        <path id="DejaVuSans-34" d="M 2419 4116 
L 825 1625 
L 2419 1625 
L 2419 4116 
z
M 2253 4666 
L 3047 4666 
L 3047 1625 
L 3713 1625 
L 3713 1100 
L 3047 1100 
L 3047 0 
L 2419 0 
L 2419 1100 
L 313 1100 
L 313 1709 
L 2253 4666 
z
" transform="scale(0.015625)"/>
       </defs>
       <use xlink:href="#DejaVuSans-34"/>
       <use xlink:href="#DejaVuSans-30" x="63.623047"/>
       <use xlink:href="#DejaVuSans-30" x="127.246094"/>
      </g>
     </g>
    </g>
    <g id="xtick_4">
     <g id="line2d_7">
      <path d="M 200.448 307.584 
L 200.448 41.472 
" clip-path="url(#p076d2fb50f)" style="fill: none; stroke: #b0b0b0; stroke-width: 0.8; stroke-linecap: square"/>
     </g>
     <g id="line2d_8">
      <g>
       <use xlink:href="#m2fe693f304" x="200.448" y="307.584" style="stroke: #000000; stroke-width: 0.8"/>
      </g>
     </g>
     <g id="text_4">
      <!-- 600 -->
      <g transform="translate(190.90425 322.182437) scale(0.1 -0.1)">
       <defs>
        <path id="DejaVuSans-36" d="M 2113 2584 
Q 1688 2584 1439 2293 
Q 1191 2003 1191 1497 
Q 1191 994 1439 701 
Q 1688 409 2113 409 
Q 2538 409 2786 701 
Q 3034 994 3034 1497 
Q 3034 2003 2786 2293 
Q 2538 2584 2113 2584 
z
M 3366 4563 
L 3366 3988 
Q 3128 4100 2886 4159 
Q 2644 4219 2406 4219 
Q 1781 4219 1451 3797 
Q 1122 3375 1075 2522 
Q 1259 2794 1537 2939 
Q 1816 3084 2150 3084 
Q 2853 3084 3261 2657 
Q 3669 2231 3669 1497 
Q 3669 778 3244 343 
Q 2819 -91 2113 -91 
Q 1303 -91 875 529 
Q 447 1150 447 2328 
Q 447 3434 972 4092 
Q 1497 4750 2381 4750 
Q 2619 4750 2861 4703 
Q 3103 4656 3366 4563 
z
" transform="scale(0.015625)"/>
       </defs>
       <use xlink:href="#DejaVuSans-36"/>
       <use xlink:href="#DejaVuSans-30" x="63.623047"/>
       <use xlink:href="#DejaVuSans-30" x="127.246094"/>
      </g>
     </g>
    </g>
    <g id="xtick_5">
     <g id="line2d_9">
      <path d="M 248.064 307.584 
L 248.064 41.472 
" clip-path="url(#p076d2fb50f)" style="fill: none; stroke: #b0b0b0; stroke-width: 0.8; stroke-linecap: square"/>
     </g>
     <g id="line2d_10">
      <g>
       <use xlink:href="#m2fe693f304" x="248.064" y="307.584" style="stroke: #000000; stroke-width: 0.8"/>
      </g>
     </g>
     <g id="text_5">
      <!-- 800 -->
      <g transform="translate(238.52025 322.182437) scale(0.1 -0.1)">
       <defs>
        <path id="DejaVuSans-38" d="M 2034 2216 
Q 1584 2216 1326 1975 
Q 1069 1734 1069 1313 
Q 1069 891 1326 650 
Q 1584 409 2034 409 
Q 2484 409 2743 651 
Q 3003 894 3003 1313 
Q 3003 1734 2745 1975 
Q 2488 2216 2034 2216 
z
M 1403 2484 
Q 997 2584 770 2862 
Q 544 3141 544 3541 
Q 544 4100 942 4425 
Q 1341 4750 2034 4750 
Q 2731 4750 3128 4425 
Q 3525 4100 3525 3541 
Q 3525 3141 3298 2862 
Q 3072 2584 2669 2484 
Q 3125 2378 3379 2068 
Q 3634 1759 3634 1313 
Q 3634 634 3220 271 
Q 2806 -91 2034 -91 
Q 1263 -91 848 271 
Q 434 634 434 1313 
Q 434 1759 690 2068 
Q 947 2378 1403 2484 
z
M 1172 3481 
Q 1172 3119 1398 2916 
Q 1625 2713 2034 2713 
Q 2441 2713 2670 2916 
Q 2900 3119 2900 3481 
Q 2900 3844 2670 4047 
Q 2441 4250 2034 4250 
Q 1625 4250 1398 4047 
Q 1172 3844 1172 3481 
z
" transform="scale(0.015625)"/>
       </defs>
       <use xlink:href="#DejaVuSans-38"/>
       <use xlink:href="#DejaVuSans-30" x="63.623047"/>
       <use xlink:href="#DejaVuSans-30" x="127.246094"/>
      </g>
     </g>
    </g>
    <g id="xtick_6">
     <g id="line2d_11">
      <path d="M 295.68 307.584 
L 295.68 41.472 
" clip-path="url(#p076d2fb50f)" style="fill: none; stroke: #b0b0b0; stroke-width: 0.8; stroke-linecap: square"/>
     </g>
     <g id="line2d_12">
      <g>
       <use xlink:href="#m2fe693f304" x="295.68" y="307.584" style="stroke: #000000; stroke-width: 0.8"/>
      </g>
     </g>
     <g id="text_6">
      <!-- 1000 -->
      <g transform="translate(282.955 322.182437) scale(0.1 -0.1)">
       <defs>
        <path id="DejaVuSans-31" d="M 794 531 
L 1825 531 
L 1825 4091 
L 703 3866 
L 703 4441 
L 1819 4666 
L 2450 4666 
L 2450 531 
L 3481 531 
L 3481 0 
L 794 0 
L 794 531 
z
" transform="scale(0.015625)"/>
       </defs>
       <use xlink:href="#DejaVuSans-31"/>
       <use xlink:href="#DejaVuSans-30" x="63.623047"/>
       <use xlink:href="#DejaVuSans-30" x="127.246094"/>
       <use xlink:href="#DejaVuSans-30" x="190.869141"/>
      </g>
     </g>
    </g>
    <g id="xtick_7">
     <g id="line2d_13">
      <path d="M 343.296 307.584 
L 343.296 41.472 
" clip-path="url(#p076d2fb50f)" style="fill: none; stroke: #b0b0b0; stroke-width: 0.8; stroke-linecap: square"/>
     </g>
     <g id="line2d_14">
      <g>
       <use xlink:href="#m2fe693f304" x="343.296" y="307.584" style="stroke: #000000; stroke-width: 0.8"/>
      </g>
     </g>
     <g id="text_7">
      <!-- 1200 -->
      <g transform="translate(330.571 322.182437) scale(0.1 -0.1)">
       <use xlink:href="#DejaVuSans-31"/>
       <use xlink:href="#DejaVuSans-32" x="63.623047"/>
       <use xlink:href="#DejaVuSans-30" x="127.246094"/>
       <use xlink:href="#DejaVuSans-30" x="190.869141"/>
      </g>
     </g>
    </g>
    <g id="xtick_8">
     <g id="line2d_15">
      <path d="M 390.912 307.584 
L 390.912 41.472 
" clip-path="url(#p076d2fb50f)" style="fill: none; stroke: #b0b0b0; stroke-width: 0.8; stroke-linecap: square"/>
     </g>
     <g id="line2d_16">
      <g>
       <use xlink:href="#m2fe693f304" x="390.912" y="307.584" style="stroke: #000000; stroke-width: 0.8"/>
      </g>
     </g>
     <g id="text_8">
      <!-- 1400 -->
      <g transform="translate(378.187 322.182437) scale(0.1 -0.1)">
       <use xlink:href="#DejaVuSans-31"/>
       <use xlink:href="#DejaVuSans-34" x="63.623047"/>
       <use xlink:href="#DejaVuSans-30" x="127.246094"/>
       <use xlink:href="#DejaVuSans-30" x="190.869141"/>
      </g>
     </g>
    </g>
    <g id="text_9">
     <!-- Artificial Delay (ms or time unit) -->
     <g transform="translate(155.835781 335.860562) scale(0.1 -0.1)">
      <defs>
       <path id="DejaVuSans-41" d="M 2188 4044 
L 1331 1722 
L 3047 1722 
L 2188 4044 
z
M 1831 4666 
L 2547 4666 
L 4325 0 
L 3669 0 
L 3244 1197 
L 1141 1197 
L 716 0 
L 50 0 
L 1831 4666 
z
" transform="scale(0.015625)"/>
       <path id="DejaVuSans-72" d="M 2631 2963 
Q 2534 3019 2420 3045 
Q 2306 3072 2169 3072 
Q 1681 3072 1420 2755 
Q 1159 2438 1159 1844 
L 1159 0 
L 581 0 
L 581 3500 
L 1159 3500 
L 1159 2956 
Q 1341 3275 1631 3429 
Q 1922 3584 2338 3584 
Q 2397 3584 2469 3576 
Q 2541 3569 2628 3553 
L 2631 2963 
z
" transform="scale(0.015625)"/>
       <path id="DejaVuSans-74" d="M 1172 4494 
L 1172 3500 
L 2356 3500 
L 2356 3053 
L 1172 3053 
L 1172 1153 
Q 1172 725 1289 603 
Q 1406 481 1766 481 
L 2356 481 
L 2356 0 
L 1766 0 
Q 1100 0 847 248 
Q 594 497 594 1153 
L 594 3053 
L 172 3053 
L 172 3500 
L 594 3500 
L 594 4494 
L 1172 4494 
z
" transform="scale(0.015625)"/>
       <path id="DejaVuSans-69" d="M 603 3500 
L 1178 3500 
L 1178 0 
L 603 0 
L 603 3500 
z
M 603 4863 
L 1178 4863 
L 1178 4134 
L 603 4134 
L 603 4863 
z
" transform="scale(0.015625)"/>
       <path id="DejaVuSans-66" d="M 2375 4863 
L 2375 4384 
L 1825 4384 
Q 1516 4384 1395 4259 
Q 1275 4134 1275 3809 
L 1275 3500 
L 2222 3500 
L 2222 3053 
L 1275 3053 
L 1275 0 
L 697 0 
L 697 3053 
L 147 3053 
L 147 3500 
L 697 3500 
L 697 3744 
Q 697 4328 969 4595 
Q 1241 4863 1831 4863 
L 2375 4863 
z
" transform="scale(0.015625)"/>
       <path id="DejaVuSans-63" d="M 3122 3366 
L 3122 2828 
Q 2878 2963 2633 3030 
Q 2388 3097 2138 3097 
Q 1578 3097 1268 2742 
Q 959 2388 959 1747 
Q 959 1106 1268 751 
Q 1578 397 2138 397 
Q 2388 397 2633 464 
Q 2878 531 3122 666 
L 3122 134 
Q 2881 22 2623 -34 
Q 2366 -91 2075 -91 
Q 1284 -91 818 406 
Q 353 903 353 1747 
Q 353 2603 823 3093 
Q 1294 3584 2113 3584 
Q 2378 3584 2631 3529 
Q 2884 3475 3122 3366 
z
" transform="scale(0.015625)"/>
       <path id="DejaVuSans-61" d="M 2194 1759 
Q 1497 1759 1228 1600 
Q 959 1441 959 1056 
Q 959 750 1161 570 
Q 1363 391 1709 391 
Q 2188 391 2477 730 
Q 2766 1069 2766 1631 
L 2766 1759 
L 2194 1759 
z
M 3341 1997 
L 3341 0 
L 2766 0 
L 2766 531 
Q 2569 213 2275 61 
Q 1981 -91 1556 -91 
Q 1019 -91 701 211 
Q 384 513 384 1019 
Q 384 1609 779 1909 
Q 1175 2209 1959 2209 
L 2766 2209 
L 2766 2266 
Q 2766 2663 2505 2880 
Q 2244 3097 1772 3097 
Q 1472 3097 1187 3025 
Q 903 2953 641 2809 
L 641 3341 
Q 956 3463 1253 3523 
Q 1550 3584 1831 3584 
Q 2591 3584 2966 3190 
Q 3341 2797 3341 1997 
z
" transform="scale(0.015625)"/>
       <path id="DejaVuSans-6c" d="M 603 4863 
L 1178 4863 
L 1178 0 
L 603 0 
L 603 4863 
z
" transform="scale(0.015625)"/>
       <path id="DejaVuSans-20" transform="scale(0.015625)"/>
       <path id="DejaVuSans-44" d="M 1259 4147 
L 1259 519 
L 2022 519 
Q 2988 519 3436 956 
Q 3884 1394 3884 2338 
Q 3884 3275 3436 3711 
Q 2988 4147 2022 4147 
L 1259 4147 
z
M 628 4666 
L 1925 4666 
Q 3281 4666 3915 4102 
Q 4550 3538 4550 2338 
Q 4550 1131 3912 565 
Q 3275 0 1925 0 
L 628 0 
L 628 4666 
z
" transform="scale(0.015625)"/>
       <path id="DejaVuSans-65" d="M 3597 1894 
L 3597 1613 
L 953 1613 
Q 991 1019 1311 708 
Q 1631 397 2203 397 
Q 2534 397 2845 478 
Q 3156 559 3463 722 
L 3463 178 
Q 3153 47 2828 -22 
Q 2503 -91 2169 -91 
Q 1331 -91 842 396 
Q 353 884 353 1716 
Q 353 2575 817 3079 
Q 1281 3584 2069 3584 
Q 2775 3584 3186 3129 
Q 3597 2675 3597 1894 
z
M 3022 2063 
Q 3016 2534 2758 2815 
Q 2500 3097 2075 3097 
Q 1594 3097 1305 2825 
Q 1016 2553 972 2059 
L 3022 2063 
z
" transform="scale(0.015625)"/>
       <path id="DejaVuSans-79" d="M 2059 -325 
Q 1816 -950 1584 -1140 
Q 1353 -1331 966 -1331 
L 506 -1331 
L 506 -850 
L 844 -850 
Q 1081 -850 1212 -737 
Q 1344 -625 1503 -206 
L 1606 56 
L 191 3500 
L 800 3500 
L 1894 763 
L 2988 3500 
L 3597 3500 
L 2059 -325 
z
" transform="scale(0.015625)"/>
       <path id="DejaVuSans-28" d="M 1984 4856 
Q 1566 4138 1362 3434 
Q 1159 2731 1159 2009 
Q 1159 1288 1364 580 
Q 1569 -128 1984 -844 
L 1484 -844 
Q 1016 -109 783 600 
Q 550 1309 550 2009 
Q 550 2706 781 3412 
Q 1013 4119 1484 4856 
L 1984 4856 
z
" transform="scale(0.015625)"/>
       <path id="DejaVuSans-6d" d="M 3328 2828 
Q 3544 3216 3844 3400 
Q 4144 3584 4550 3584 
Q 5097 3584 5394 3201 
Q 5691 2819 5691 2113 
L 5691 0 
L 5113 0 
L 5113 2094 
Q 5113 2597 4934 2840 
Q 4756 3084 4391 3084 
Q 3944 3084 3684 2787 
Q 3425 2491 3425 1978 
L 3425 0 
L 2847 0 
L 2847 2094 
Q 2847 2600 2669 2842 
Q 2491 3084 2119 3084 
Q 1678 3084 1418 2786 
Q 1159 2488 1159 1978 
L 1159 0 
L 581 0 
L 581 3500 
L 1159 3500 
L 1159 2956 
Q 1356 3278 1631 3431 
Q 1906 3584 2284 3584 
Q 2666 3584 2933 3390 
Q 3200 3197 3328 2828 
z
" transform="scale(0.015625)"/>
       <path id="DejaVuSans-73" d="M 2834 3397 
L 2834 2853 
Q 2591 2978 2328 3040 
Q 2066 3103 1784 3103 
Q 1356 3103 1142 2972 
Q 928 2841 928 2578 
Q 928 2378 1081 2264 
Q 1234 2150 1697 2047 
L 1894 2003 
Q 2506 1872 2764 1633 
Q 3022 1394 3022 966 
Q 3022 478 2636 193 
Q 2250 -91 1575 -91 
Q 1294 -91 989 -36 
Q 684 19 347 128 
L 347 722 
Q 666 556 975 473 
Q 1284 391 1588 391 
Q 1994 391 2212 530 
Q 2431 669 2431 922 
Q 2431 1156 2273 1281 
Q 2116 1406 1581 1522 
L 1381 1569 
Q 847 1681 609 1914 
Q 372 2147 372 2553 
Q 372 3047 722 3315 
Q 1072 3584 1716 3584 
Q 2034 3584 2315 3537 
Q 2597 3491 2834 3397 
z
" transform="scale(0.015625)"/>
       <path id="DejaVuSans-6f" d="M 1959 3097 
Q 1497 3097 1228 2736 
Q 959 2375 959 1747 
Q 959 1119 1226 758 
Q 1494 397 1959 397 
Q 2419 397 2687 759 
Q 2956 1122 2956 1747 
Q 2956 2369 2687 2733 
Q 2419 3097 1959 3097 
z
M 1959 3584 
Q 2709 3584 3137 3096 
Q 3566 2609 3566 1747 
Q 3566 888 3137 398 
Q 2709 -91 1959 -91 
Q 1206 -91 779 398 
Q 353 888 353 1747 
Q 353 2609 779 3096 
Q 1206 3584 1959 3584 
z
" transform="scale(0.015625)"/>
       <path id="DejaVuSans-75" d="M 544 1381 
L 544 3500 
L 1119 3500 
L 1119 1403 
Q 1119 906 1312 657 
Q 1506 409 1894 409 
Q 2359 409 2629 706 
Q 2900 1003 2900 1516 
L 2900 3500 
L 3475 3500 
L 3475 0 
L 2900 0 
L 2900 538 
Q 2691 219 2414 64 
Q 2138 -91 1772 -91 
Q 1169 -91 856 284 
Q 544 659 544 1381 
z
M 1991 3584 
L 1991 3584 
z
" transform="scale(0.015625)"/>
       <path id="DejaVuSans-6e" d="M 3513 2113 
L 3513 0 
L 2938 0 
L 2938 2094 
Q 2938 2591 2744 2837 
Q 2550 3084 2163 3084 
Q 1697 3084 1428 2787 
Q 1159 2491 1159 1978 
L 1159 0 
L 581 0 
L 581 3500 
L 1159 3500 
L 1159 2956 
Q 1366 3272 1645 3428 
Q 1925 3584 2291 3584 
Q 2894 3584 3203 3211 
Q 3513 2838 3513 2113 
z
" transform="scale(0.015625)"/>
       <path id="DejaVuSans-29" d="M 513 4856 
L 1013 4856 
Q 1481 4119 1714 3412 
Q 1947 2706 1947 2009 
Q 1947 1309 1714 600 
Q 1481 -109 1013 -844 
L 513 -844 
Q 928 -128 1133 580 
Q 1338 1288 1338 2009 
Q 1338 2731 1133 3434 
Q 928 4138 513 4856 
z
" transform="scale(0.015625)"/>
      </defs>
      <use xlink:href="#DejaVuSans-41"/>
      <use xlink:href="#DejaVuSans-72" x="68.408203"/>
      <use xlink:href="#DejaVuSans-74" x="109.521484"/>
      <use xlink:href="#DejaVuSans-69" x="148.730469"/>
      <use xlink:href="#DejaVuSans-66" x="176.513672"/>
      <use xlink:href="#DejaVuSans-69" x="211.71875"/>
      <use xlink:href="#DejaVuSans-63" x="239.501953"/>
      <use xlink:href="#DejaVuSans-69" x="294.482422"/>
      <use xlink:href="#DejaVuSans-61" x="322.265625"/>
      <use xlink:href="#DejaVuSans-6c" x="383.544922"/>
      <use xlink:href="#DejaVuSans-20" x="411.328125"/>
      <use xlink:href="#DejaVuSans-44" x="443.115234"/>
      <use xlink:href="#DejaVuSans-65" x="520.117188"/>
      <use xlink:href="#DejaVuSans-6c" x="581.640625"/>
      <use xlink:href="#DejaVuSans-61" x="609.423828"/>
      <use xlink:href="#DejaVuSans-79" x="670.703125"/>
      <use xlink:href="#DejaVuSans-20" x="729.882812"/>
      <use xlink:href="#DejaVuSans-28" x="761.669922"/>
      <use xlink:href="#DejaVuSans-6d" x="800.683594"/>
      <use xlink:href="#DejaVuSans-73" x="898.095703"/>
      <use xlink:href="#DejaVuSans-20" x="950.195312"/>
      <use xlink:href="#DejaVuSans-6f" x="981.982422"/>
      <use xlink:href="#DejaVuSans-72" x="1043.164062"/>
      <use xlink:href="#DejaVuSans-20" x="1084.277344"/>
      <use xlink:href="#DejaVuSans-74" x="1116.064453"/>
      <use xlink:href="#DejaVuSans-69" x="1155.273438"/>
      <use xlink:href="#DejaVuSans-6d" x="1183.056641"/>
      <use xlink:href="#DejaVuSans-65" x="1280.46875"/>
      <use xlink:href="#DejaVuSans-20" x="1341.992188"/>
      <use xlink:href="#DejaVuSans-75" x="1373.779297"/>
      <use xlink:href="#DejaVuSans-6e" x="1437.158203"/>
      <use xlink:href="#DejaVuSans-69" x="1500.537109"/>
      <use xlink:href="#DejaVuSans-74" x="1528.320312"/>
      <use xlink:href="#DejaVuSans-29" x="1567.529297"/>
     </g>
    </g>
   </g>
   <g id="matplotlib.axis_2">
    <g id="ytick_1">
     <g id="line2d_17">
      <path d="M 57.6 307.584 
L 414.72 307.584 
" clip-path="url(#p076d2fb50f)" style="fill: none; stroke: #b0b0b0; stroke-width: 0.8; stroke-linecap: square"/>
     </g>
     <g id="line2d_18">
      <defs>
       <path id="m89700980eb" d="M 0 0 
L -3.5 0 
" style="stroke: #000000; stroke-width: 0.8"/>
      </defs>
      <g>
       <use xlink:href="#m89700980eb" x="57.6" y="307.584" style="stroke: #000000; stroke-width: 0.8"/>
      </g>
     </g>
     <g id="text_10">
      <!-- 0 -->
      <g transform="translate(44.2375 311.383219) scale(0.1 -0.1)">
       <use xlink:href="#DejaVuSans-30"/>
      </g>
     </g>
    </g>
    <g id="ytick_2">
     <g id="line2d_19">
      <path d="M 57.6 254.3616 
L 414.72 254.3616 
" clip-path="url(#p076d2fb50f)" style="fill: none; stroke: #b0b0b0; stroke-width: 0.8; stroke-linecap: square"/>
     </g>
     <g id="line2d_20">
      <g>
       <use xlink:href="#m89700980eb" x="57.6" y="254.3616" style="stroke: #000000; stroke-width: 0.8"/>
      </g>
     </g>
     <g id="text_11">
      <!-- 5 -->
      <g transform="translate(44.2375 258.160819) scale(0.1 -0.1)">
       <defs>
        <path id="DejaVuSans-35" d="M 691 4666 
L 3169 4666 
L 3169 4134 
L 1269 4134 
L 1269 2991 
Q 1406 3038 1543 3061 
Q 1681 3084 1819 3084 
Q 2600 3084 3056 2656 
Q 3513 2228 3513 1497 
Q 3513 744 3044 326 
Q 2575 -91 1722 -91 
Q 1428 -91 1123 -41 
Q 819 9 494 109 
L 494 744 
Q 775 591 1075 516 
Q 1375 441 1709 441 
Q 2250 441 2565 725 
Q 2881 1009 2881 1497 
Q 2881 1984 2565 2268 
Q 2250 2553 1709 2553 
Q 1456 2553 1204 2497 
Q 953 2441 691 2322 
L 691 4666 
z
" transform="scale(0.015625)"/>
       </defs>
       <use xlink:href="#DejaVuSans-35"/>
      </g>
     </g>
    </g>
    <g id="ytick_3">
     <g id="line2d_21">
      <path d="M 57.6 201.1392 
L 414.72 201.1392 
" clip-path="url(#p076d2fb50f)" style="fill: none; stroke: #b0b0b0; stroke-width: 0.8; stroke-linecap: square"/>
     </g>
     <g id="line2d_22">
      <g>
       <use xlink:href="#m89700980eb" x="57.6" y="201.1392" style="stroke: #000000; stroke-width: 0.8"/>
      </g>
     </g>
     <g id="text_12">
      <!-- 10 -->
      <g transform="translate(37.875 204.938419) scale(0.1 -0.1)">
       <use xlink:href="#DejaVuSans-31"/>
       <use xlink:href="#DejaVuSans-30" x="63.623047"/>
      </g>
     </g>
    </g>
    <g id="ytick_4">
     <g id="line2d_23">
      <path d="M 57.6 147.9168 
L 414.72 147.9168 
" clip-path="url(#p076d2fb50f)" style="fill: none; stroke: #b0b0b0; stroke-width: 0.8; stroke-linecap: square"/>
     </g>
     <g id="line2d_24">
      <g>
       <use xlink:href="#m89700980eb" x="57.6" y="147.9168" style="stroke: #000000; stroke-width: 0.8"/>
      </g>
     </g>
     <g id="text_13">
      <!-- 15 -->
      <g transform="translate(37.875 151.716019) scale(0.1 -0.1)">
       <use xlink:href="#DejaVuSans-31"/>
       <use xlink:href="#DejaVuSans-35" x="63.623047"/>
      </g>
     </g>
    </g>
    <g id="ytick_5">
     <g id="line2d_25">
      <path d="M 57.6 94.6944 
L 414.72 94.6944 
" clip-path="url(#p076d2fb50f)" style="fill: none; stroke: #b0b0b0; stroke-width: 0.8; stroke-linecap: square"/>
     </g>
     <g id="line2d_26">
      <g>
       <use xlink:href="#m89700980eb" x="57.6" y="94.6944" style="stroke: #000000; stroke-width: 0.8"/>
      </g>
     </g>
     <g id="text_14">
      <!-- 20 -->
      <g transform="translate(37.875 98.493619) scale(0.1 -0.1)">
       <use xlink:href="#DejaVuSans-32"/>
       <use xlink:href="#DejaVuSans-30" x="63.623047"/>
      </g>
     </g>
    </g>
    <g id="ytick_6">
     <g id="line2d_27">
      <path d="M 57.6 41.472 
L 414.72 41.472 
" clip-path="url(#p076d2fb50f)" style="fill: none; stroke: #b0b0b0; stroke-width: 0.8; stroke-linecap: square"/>
     </g>
     <g id="line2d_28">
      <g>
       <use xlink:href="#m89700980eb" x="57.6" y="41.472" style="stroke: #000000; stroke-width: 0.8"/>
      </g>
     </g>
     <g id="text_15">
      <!-- 25 -->
      <g transform="translate(37.875 45.271219) scale(0.1 -0.1)">
       <use xlink:href="#DejaVuSans-32"/>
       <use xlink:href="#DejaVuSans-35" x="63.623047"/>
      </g>
     </g>
    </g>
    <g id="text_16">
     <!-- Duration of client query (s) -->
     <g transform="translate(31.379375 255.605812) rotate(-90) scale(0.12 -0.12)">
      <defs>
       <path id="DejaVuSans-71" d="M 947 1747 
Q 947 1113 1208 752 
Q 1469 391 1925 391 
Q 2381 391 2643 752 
Q 2906 1113 2906 1747 
Q 2906 2381 2643 2742 
Q 2381 3103 1925 3103 
Q 1469 3103 1208 2742 
Q 947 2381 947 1747 
z
M 2906 525 
Q 2725 213 2448 61 
Q 2172 -91 1784 -91 
Q 1150 -91 751 415 
Q 353 922 353 1747 
Q 353 2572 751 3078 
Q 1150 3584 1784 3584 
Q 2172 3584 2448 3432 
Q 2725 3281 2906 2969 
L 2906 3500 
L 3481 3500 
L 3481 -1331 
L 2906 -1331 
L 2906 525 
z
" transform="scale(0.015625)"/>
      </defs>
      <use xlink:href="#DejaVuSans-44"/>
      <use xlink:href="#DejaVuSans-75" x="77.001953"/>
      <use xlink:href="#DejaVuSans-72" x="140.380859"/>
      <use xlink:href="#DejaVuSans-61" x="181.494141"/>
      <use xlink:href="#DejaVuSans-74" x="242.773438"/>
      <use xlink:href="#DejaVuSans-69" x="281.982422"/>
      <use xlink:href="#DejaVuSans-6f" x="309.765625"/>
      <use xlink:href="#DejaVuSans-6e" x="370.947266"/>
      <use xlink:href="#DejaVuSans-20" x="434.326172"/>
      <use xlink:href="#DejaVuSans-6f" x="466.113281"/>
      <use xlink:href="#DejaVuSans-66" x="527.294922"/>
      <use xlink:href="#DejaVuSans-20" x="562.5"/>
      <use xlink:href="#DejaVuSans-63" x="594.287109"/>
      <use xlink:href="#DejaVuSans-6c" x="649.267578"/>
      <use xlink:href="#DejaVuSans-69" x="677.050781"/>
      <use xlink:href="#DejaVuSans-65" x="704.833984"/>
      <use xlink:href="#DejaVuSans-6e" x="766.357422"/>
      <use xlink:href="#DejaVuSans-74" x="829.736328"/>
      <use xlink:href="#DejaVuSans-20" x="868.945312"/>
      <use xlink:href="#DejaVuSans-71" x="900.732422"/>
      <use xlink:href="#DejaVuSans-75" x="964.208984"/>
      <use xlink:href="#DejaVuSans-65" x="1027.587891"/>
      <use xlink:href="#DejaVuSans-72" x="1089.111328"/>
      <use xlink:href="#DejaVuSans-79" x="1130.224609"/>
      <use xlink:href="#DejaVuSans-20" x="1189.404297"/>
      <use xlink:href="#DejaVuSans-28" x="1221.191406"/>
      <use xlink:href="#DejaVuSans-73" x="1260.205078"/>
      <use xlink:href="#DejaVuSans-29" x="1312.304688"/>
     </g>
    </g>
   </g>
   <g id="line2d_29">
    <path d="M 57.6 307.355288 
L 105.216 290.32412 
L 152.832 273.292952 
L 200.448 256.261784 
L 248.064 239.230616 
L 295.68 222.199448 
L 343.296 205.16828 
L 390.912 188.137112 
L 438.528 171.105944 
" clip-path="url(#p076d2fb50f)" style="fill: none; stroke: #1f77b4; stroke-width: 1.5; stroke-linecap: square"/>
    <defs>
     <path id="md0bbdb0f84" d="M 0 3 
C 0.795609 3 1.55874 2.683901 2.12132 2.12132 
C 2.683901 1.55874 3 0.795609 3 0 
C 3 -0.795609 2.683901 -1.55874 2.12132 -2.12132 
C 1.55874 -2.683901 0.795609 -3 0 -3 
C -0.795609 -3 -1.55874 -2.683901 -2.12132 -2.12132 
C -2.683901 -1.55874 -3 -0.795609 -3 0 
C -3 0.795609 -2.683901 1.55874 -2.12132 2.12132 
C -1.55874 2.683901 -0.795609 3 0 3 
z
" style="stroke: #1f77b4"/>
    </defs>
    <g clip-path="url(#p076d2fb50f)">
     <use xlink:href="#md0bbdb0f84" x="57.6" y="307.355288" style="fill: #1f77b4; stroke: #1f77b4"/>
     <use xlink:href="#md0bbdb0f84" x="105.216" y="290.32412" style="fill: #1f77b4; stroke: #1f77b4"/>
     <use xlink:href="#md0bbdb0f84" x="152.832" y="273.292952" style="fill: #1f77b4; stroke: #1f77b4"/>
     <use xlink:href="#md0bbdb0f84" x="200.448" y="256.261784" style="fill: #1f77b4; stroke: #1f77b4"/>
     <use xlink:href="#md0bbdb0f84" x="248.064" y="239.230616" style="fill: #1f77b4; stroke: #1f77b4"/>
     <use xlink:href="#md0bbdb0f84" x="295.68" y="222.199448" style="fill: #1f77b4; stroke: #1f77b4"/>
     <use xlink:href="#md0bbdb0f84" x="343.296" y="205.16828" style="fill: #1f77b4; stroke: #1f77b4"/>
     <use xlink:href="#md0bbdb0f84" x="390.912" y="188.137112" style="fill: #1f77b4; stroke: #1f77b4"/>
     <use xlink:href="#md0bbdb0f84" x="438.528" y="171.105944" style="fill: #1f77b4; stroke: #1f77b4"/>
    </g>
   </g>
   <g id="line2d_30">
    <path d="M 57.6 307.31527 
L 105.216 283.897414 
L 152.832 260.479558 
L 200.448 237.061702 
L 248.064 213.643846 
L 295.68 190.22599 
L 343.296 166.808134 
L 390.912 143.390278 
L 438.528 119.972422 
" clip-path="url(#p076d2fb50f)" style="fill: none; stroke: #ff7f0e; stroke-width: 1.5; stroke-linecap: square"/>
    <defs>
     <path id="mfd3ced3e0d" d="M 0 3 
C 0.795609 3 1.55874 2.683901 2.12132 2.12132 
C 2.683901 1.55874 3 0.795609 3 0 
C 3 -0.795609 2.683901 -1.55874 2.12132 -2.12132 
C 1.55874 -2.683901 0.795609 -3 0 -3 
C -0.795609 -3 -1.55874 -2.683901 -2.12132 -2.12132 
C -2.683901 -1.55874 -3 -0.795609 -3 0 
C -3 0.795609 -2.683901 1.55874 -2.12132 2.12132 
C -1.55874 2.683901 -0.795609 3 0 3 
z
" style="stroke: #ff7f0e"/>
    </defs>
    <g clip-path="url(#p076d2fb50f)">
     <use xlink:href="#mfd3ced3e0d" x="57.6" y="307.31527" style="fill: #ff7f0e; stroke: #ff7f0e"/>
     <use xlink:href="#mfd3ced3e0d" x="105.216" y="283.897414" style="fill: #ff7f0e; stroke: #ff7f0e"/>
     <use xlink:href="#mfd3ced3e0d" x="152.832" y="260.479558" style="fill: #ff7f0e; stroke: #ff7f0e"/>
     <use xlink:href="#mfd3ced3e0d" x="200.448" y="237.061702" style="fill: #ff7f0e; stroke: #ff7f0e"/>
     <use xlink:href="#mfd3ced3e0d" x="248.064" y="213.643846" style="fill: #ff7f0e; stroke: #ff7f0e"/>
     <use xlink:href="#mfd3ced3e0d" x="295.68" y="190.22599" style="fill: #ff7f0e; stroke: #ff7f0e"/>
     <use xlink:href="#mfd3ced3e0d" x="343.296" y="166.808134" style="fill: #ff7f0e; stroke: #ff7f0e"/>
     <use xlink:href="#mfd3ced3e0d" x="390.912" y="143.390278" style="fill: #ff7f0e; stroke: #ff7f0e"/>
     <use xlink:href="#mfd3ced3e0d" x="438.528" y="119.972422" style="fill: #ff7f0e; stroke: #ff7f0e"/>
    </g>
   </g>
   <g id="line2d_31">
    <path d="M 57.6 307.327381 
L 105.216 286.038421 
L 152.832 264.749461 
L 200.448 243.717119 
L 248.064 243.717119 
L 295.68 243.717119 
L 343.296 243.717119 
L 390.912 243.717119 
L 438.528 243.717119 
" clip-path="url(#p076d2fb50f)" style="fill: none; stroke: #2ca02c; stroke-width: 1.5; stroke-linecap: square"/>
    <defs>
     <path id="m628e91ae43" d="M 0 3 
C 0.795609 3 1.55874 2.683901 2.12132 2.12132 
C 2.683901 1.55874 3 0.795609 3 0 
C 3 -0.795609 2.683901 -1.55874 2.12132 -2.12132 
C 1.55874 -2.683901 0.795609 -3 0 -3 
C -0.795609 -3 -1.55874 -2.683901 -2.12132 -2.12132 
C -2.683901 -1.55874 -3 -0.795609 -3 0 
C -3 0.795609 -2.683901 1.55874 -2.12132 2.12132 
C -1.55874 2.683901 -0.795609 3 0 3 
z
" style="stroke: #2ca02c"/>
    </defs>
    <g clip-path="url(#p076d2fb50f)">
     <use xlink:href="#m628e91ae43" x="57.6" y="307.327381" style="fill: #2ca02c; stroke: #2ca02c"/>
     <use xlink:href="#m628e91ae43" x="105.216" y="286.038421" style="fill: #2ca02c; stroke: #2ca02c"/>
     <use xlink:href="#m628e91ae43" x="152.832" y="264.749461" style="fill: #2ca02c; stroke: #2ca02c"/>
     <use xlink:href="#m628e91ae43" x="200.448" y="243.717119" style="fill: #2ca02c; stroke: #2ca02c"/>
     <use xlink:href="#m628e91ae43" x="248.064" y="243.717119" style="fill: #2ca02c; stroke: #2ca02c"/>
     <use xlink:href="#m628e91ae43" x="295.68" y="243.717119" style="fill: #2ca02c; stroke: #2ca02c"/>
     <use xlink:href="#m628e91ae43" x="343.296" y="243.717119" style="fill: #2ca02c; stroke: #2ca02c"/>
     <use xlink:href="#m628e91ae43" x="390.912" y="243.717119" style="fill: #2ca02c; stroke: #2ca02c"/>
     <use xlink:href="#m628e91ae43" x="438.528" y="243.717119" style="fill: #2ca02c; stroke: #2ca02c"/>
    </g>
   </g>
   <g id="line2d_32">
    <path d="M 57.6 306.937894 
L 105.216 272.875558 
L 152.832 238.813222 
L 200.448 204.750886 
L 248.064 170.68855 
L 295.68 136.626214 
L 343.296 102.563878 
L 390.912 68.501542 
L 438.528 34.439206 
" clip-path="url(#p076d2fb50f)" style="fill: none; stroke: #d62728; stroke-width: 1.5; stroke-linecap: square"/>
    <defs>
     <path id="m0b239d7485" d="M 0 3 
C 0.795609 3 1.55874 2.683901 2.12132 2.12132 
C 2.683901 1.55874 3 0.795609 3 0 
C 3 -0.795609 2.683901 -1.55874 2.12132 -2.12132 
C 1.55874 -2.683901 0.795609 -3 0 -3 
C -0.795609 -3 -1.55874 -2.683901 -2.12132 -2.12132 
C -2.683901 -1.55874 -3 -0.795609 -3 0 
C -3 0.795609 -2.683901 1.55874 -2.12132 2.12132 
C -1.55874 2.683901 -0.795609 3 0 3 
z
" style="stroke: #d62728"/>
    </defs>
    <g clip-path="url(#p076d2fb50f)">
     <use xlink:href="#m0b239d7485" x="57.6" y="306.937894" style="fill: #d62728; stroke: #d62728"/>
     <use xlink:href="#m0b239d7485" x="105.216" y="272.875558" style="fill: #d62728; stroke: #d62728"/>
     <use xlink:href="#m0b239d7485" x="152.832" y="238.813222" style="fill: #d62728; stroke: #d62728"/>
     <use xlink:href="#m0b239d7485" x="200.448" y="204.750886" style="fill: #d62728; stroke: #d62728"/>
     <use xlink:href="#m0b239d7485" x="248.064" y="170.68855" style="fill: #d62728; stroke: #d62728"/>
     <use xlink:href="#m0b239d7485" x="295.68" y="136.626214" style="fill: #d62728; stroke: #d62728"/>
     <use xlink:href="#m0b239d7485" x="343.296" y="102.563878" style="fill: #d62728; stroke: #d62728"/>
     <use xlink:href="#m0b239d7485" x="390.912" y="68.501542" style="fill: #d62728; stroke: #d62728"/>
     <use xlink:href="#m0b239d7485" x="438.528" y="34.439206" style="fill: #d62728; stroke: #d62728"/>
    </g>
   </g>
   <g id="patch_3">
    <path d="M 57.6 307.584 
L 57.6 41.472 
" style="fill: none; stroke: #000000; stroke-width: 0.8; stroke-linejoin: miter; stroke-linecap: square"/>
   </g>
   <g id="patch_4">
    <path d="M 414.72 307.584 
L 414.72 41.472 
" style="fill: none; stroke: #000000; stroke-width: 0.8; stroke-linejoin: miter; stroke-linecap: square"/>
   </g>
   <g id="patch_5">
    <path d="M 57.6 307.584 
L 414.72 307.584 
" style="fill: none; stroke: #000000; stroke-width: 0.8; stroke-linejoin: miter; stroke-linecap: square"/>
   </g>
   <g id="patch_6">
    <path d="M 57.6 41.472 
L 414.72 41.472 
" style="fill: none; stroke: #000000; stroke-width: 0.8; stroke-linejoin: miter; stroke-linecap: square"/>
   </g>
   <g id="text_17">
    <!-- Duration of client query w.r.t. MODEL resolvers -->
    <g transform="translate(107.448828 10.836813) scale(0.11 -0.11)">
     <defs>
      <path id="DejaVuSans-77" d="M 269 3500 
L 844 3500 
L 1563 769 
L 2278 3500 
L 2956 3500 
L 3675 769 
L 4391 3500 
L 4966 3500 
L 4050 0 
L 3372 0 
L 2619 2869 
L 1863 0 
L 1184 0 
L 269 3500 
z
" transform="scale(0.015625)"/>
      <path id="DejaVuSans-2e" d="M 684 794 
L 1344 794 
L 1344 0 
L 684 0 
L 684 794 
z
" transform="scale(0.015625)"/>
      <path id="DejaVuSans-4d" d="M 628 4666 
L 1569 4666 
L 2759 1491 
L 3956 4666 
L 4897 4666 
L 4897 0 
L 4281 0 
L 4281 4097 
L 3078 897 
L 2444 897 
L 1241 4097 
L 1241 0 
L 628 0 
L 628 4666 
z
" transform="scale(0.015625)"/>
      <path id="DejaVuSans-4f" d="M 2522 4238 
Q 1834 4238 1429 3725 
Q 1025 3213 1025 2328 
Q 1025 1447 1429 934 
Q 1834 422 2522 422 
Q 3209 422 3611 934 
Q 4013 1447 4013 2328 
Q 4013 3213 3611 3725 
Q 3209 4238 2522 4238 
z
M 2522 4750 
Q 3503 4750 4090 4092 
Q 4678 3434 4678 2328 
Q 4678 1225 4090 567 
Q 3503 -91 2522 -91 
Q 1538 -91 948 565 
Q 359 1222 359 2328 
Q 359 3434 948 4092 
Q 1538 4750 2522 4750 
z
" transform="scale(0.015625)"/>
      <path id="DejaVuSans-45" d="M 628 4666 
L 3578 4666 
L 3578 4134 
L 1259 4134 
L 1259 2753 
L 3481 2753 
L 3481 2222 
L 1259 2222 
L 1259 531 
L 3634 531 
L 3634 0 
L 628 0 
L 628 4666 
z
" transform="scale(0.015625)"/>
      <path id="DejaVuSans-4c" d="M 628 4666 
L 1259 4666 
L 1259 531 
L 3531 531 
L 3531 0 
L 628 0 
L 628 4666 
z
" transform="scale(0.015625)"/>
      <path id="DejaVuSans-76" d="M 191 3500 
L 800 3500 
L 1894 563 
L 2988 3500 
L 3597 3500 
L 2284 0 
L 1503 0 
L 191 3500 
z
" transform="scale(0.015625)"/>
     </defs>
     <use xlink:href="#DejaVuSans-44"/>
     <use xlink:href="#DejaVuSans-75" x="77.001953"/>
     <use xlink:href="#DejaVuSans-72" x="140.380859"/>
     <use xlink:href="#DejaVuSans-61" x="181.494141"/>
     <use xlink:href="#DejaVuSans-74" x="242.773438"/>
     <use xlink:href="#DejaVuSans-69" x="281.982422"/>
     <use xlink:href="#DejaVuSans-6f" x="309.765625"/>
     <use xlink:href="#DejaVuSans-6e" x="370.947266"/>
     <use xlink:href="#DejaVuSans-20" x="434.326172"/>
     <use xlink:href="#DejaVuSans-6f" x="466.113281"/>
     <use xlink:href="#DejaVuSans-66" x="527.294922"/>
     <use xlink:href="#DejaVuSans-20" x="562.5"/>
     <use xlink:href="#DejaVuSans-63" x="594.287109"/>
     <use xlink:href="#DejaVuSans-6c" x="649.267578"/>
     <use xlink:href="#DejaVuSans-69" x="677.050781"/>
     <use xlink:href="#DejaVuSans-65" x="704.833984"/>
     <use xlink:href="#DejaVuSans-6e" x="766.357422"/>
     <use xlink:href="#DejaVuSans-74" x="829.736328"/>
     <use xlink:href="#DejaVuSans-20" x="868.945312"/>
     <use xlink:href="#DejaVuSans-71" x="900.732422"/>
     <use xlink:href="#DejaVuSans-75" x="964.208984"/>
     <use xlink:href="#DejaVuSans-65" x="1027.587891"/>
     <use xlink:href="#DejaVuSans-72" x="1089.111328"/>
     <use xlink:href="#DejaVuSans-79" x="1130.224609"/>
     <use xlink:href="#DejaVuSans-20" x="1189.404297"/>
     <use xlink:href="#DejaVuSans-77" x="1221.191406"/>
     <use xlink:href="#DejaVuSans-2e" x="1293.853516"/>
     <use xlink:href="#DejaVuSans-72" x="1325.640625"/>
     <use xlink:href="#DejaVuSans-2e" x="1357.628906"/>
     <use xlink:href="#DejaVuSans-74" x="1389.416016"/>
     <use xlink:href="#DejaVuSans-2e" x="1428.625"/>
     <use xlink:href="#DejaVuSans-20" x="1460.412109"/>
     <use xlink:href="#DejaVuSans-4d" x="1492.199219"/>
     <use xlink:href="#DejaVuSans-4f" x="1578.478516"/>
     <use xlink:href="#DejaVuSans-44" x="1657.189453"/>
     <use xlink:href="#DejaVuSans-45" x="1734.191406"/>
     <use xlink:href="#DejaVuSans-4c" x="1797.375"/>
     <use xlink:href="#DejaVuSans-20" x="1853.087891"/>
     <use xlink:href="#DejaVuSans-72" x="1884.875"/>
     <use xlink:href="#DejaVuSans-65" x="1923.738281"/>
     <use xlink:href="#DejaVuSans-73" x="1985.261719"/>
     <use xlink:href="#DejaVuSans-6f" x="2037.361328"/>
     <use xlink:href="#DejaVuSans-6c" x="2098.542969"/>
     <use xlink:href="#DejaVuSans-76" x="2126.326172"/>
     <use xlink:href="#DejaVuSans-65" x="2185.505859"/>
     <use xlink:href="#DejaVuSans-72" x="2247.029297"/>
     <use xlink:href="#DejaVuSans-73" x="2288.142578"/>
    </g>
    <!--  with Sub+CNAME scrubbing +Delay (slow CNAME) -->
    <g transform="translate(94.995625 23.154406) scale(0.11 -0.11)">
     <defs>
      <path id="DejaVuSans-68" d="M 3513 2113 
L 3513 0 
L 2938 0 
L 2938 2094 
Q 2938 2591 2744 2837 
Q 2550 3084 2163 3084 
Q 1697 3084 1428 2787 
Q 1159 2491 1159 1978 
L 1159 0 
L 581 0 
L 581 4863 
L 1159 4863 
L 1159 2956 
Q 1366 3272 1645 3428 
Q 1925 3584 2291 3584 
Q 2894 3584 3203 3211 
Q 3513 2838 3513 2113 
z
" transform="scale(0.015625)"/>
      <path id="DejaVuSans-53" d="M 3425 4513 
L 3425 3897 
Q 3066 4069 2747 4153 
Q 2428 4238 2131 4238 
Q 1616 4238 1336 4038 
Q 1056 3838 1056 3469 
Q 1056 3159 1242 3001 
Q 1428 2844 1947 2747 
L 2328 2669 
Q 3034 2534 3370 2195 
Q 3706 1856 3706 1288 
Q 3706 609 3251 259 
Q 2797 -91 1919 -91 
Q 1588 -91 1214 -16 
Q 841 59 441 206 
L 441 856 
Q 825 641 1194 531 
Q 1563 422 1919 422 
Q 2459 422 2753 634 
Q 3047 847 3047 1241 
Q 3047 1584 2836 1778 
Q 2625 1972 2144 2069 
L 1759 2144 
Q 1053 2284 737 2584 
Q 422 2884 422 3419 
Q 422 4038 858 4394 
Q 1294 4750 2059 4750 
Q 2388 4750 2728 4690 
Q 3069 4631 3425 4513 
z
" transform="scale(0.015625)"/>
      <path id="DejaVuSans-62" d="M 3116 1747 
Q 3116 2381 2855 2742 
Q 2594 3103 2138 3103 
Q 1681 3103 1420 2742 
Q 1159 2381 1159 1747 
Q 1159 1113 1420 752 
Q 1681 391 2138 391 
Q 2594 391 2855 752 
Q 3116 1113 3116 1747 
z
M 1159 2969 
Q 1341 3281 1617 3432 
Q 1894 3584 2278 3584 
Q 2916 3584 3314 3078 
Q 3713 2572 3713 1747 
Q 3713 922 3314 415 
Q 2916 -91 2278 -91 
Q 1894 -91 1617 61 
Q 1341 213 1159 525 
L 1159 0 
L 581 0 
L 581 4863 
L 1159 4863 
L 1159 2969 
z
" transform="scale(0.015625)"/>
      <path id="DejaVuSans-2b" d="M 2944 4013 
L 2944 2272 
L 4684 2272 
L 4684 1741 
L 2944 1741 
L 2944 0 
L 2419 0 
L 2419 1741 
L 678 1741 
L 678 2272 
L 2419 2272 
L 2419 4013 
L 2944 4013 
z
" transform="scale(0.015625)"/>
      <path id="DejaVuSans-43" d="M 4122 4306 
L 4122 3641 
Q 3803 3938 3442 4084 
Q 3081 4231 2675 4231 
Q 1875 4231 1450 3742 
Q 1025 3253 1025 2328 
Q 1025 1406 1450 917 
Q 1875 428 2675 428 
Q 3081 428 3442 575 
Q 3803 722 4122 1019 
L 4122 359 
Q 3791 134 3420 21 
Q 3050 -91 2638 -91 
Q 1578 -91 968 557 
Q 359 1206 359 2328 
Q 359 3453 968 4101 
Q 1578 4750 2638 4750 
Q 3056 4750 3426 4639 
Q 3797 4528 4122 4306 
z
" transform="scale(0.015625)"/>
      <path id="DejaVuSans-4e" d="M 628 4666 
L 1478 4666 
L 3547 763 
L 3547 4666 
L 4159 4666 
L 4159 0 
L 3309 0 
L 1241 3903 
L 1241 0 
L 628 0 
L 628 4666 
z
" transform="scale(0.015625)"/>
      <path id="DejaVuSans-67" d="M 2906 1791 
Q 2906 2416 2648 2759 
Q 2391 3103 1925 3103 
Q 1463 3103 1205 2759 
Q 947 2416 947 1791 
Q 947 1169 1205 825 
Q 1463 481 1925 481 
Q 2391 481 2648 825 
Q 2906 1169 2906 1791 
z
M 3481 434 
Q 3481 -459 3084 -895 
Q 2688 -1331 1869 -1331 
Q 1566 -1331 1297 -1286 
Q 1028 -1241 775 -1147 
L 775 -588 
Q 1028 -725 1275 -790 
Q 1522 -856 1778 -856 
Q 2344 -856 2625 -561 
Q 2906 -266 2906 331 
L 2906 616 
Q 2728 306 2450 153 
Q 2172 0 1784 0 
Q 1141 0 747 490 
Q 353 981 353 1791 
Q 353 2603 747 3093 
Q 1141 3584 1784 3584 
Q 2172 3584 2450 3431 
Q 2728 3278 2906 2969 
L 2906 3500 
L 3481 3500 
L 3481 434 
z
" transform="scale(0.015625)"/>
     </defs>
     <use xlink:href="#DejaVuSans-20"/>
     <use xlink:href="#DejaVuSans-77" x="31.787109"/>
     <use xlink:href="#DejaVuSans-69" x="113.574219"/>
     <use xlink:href="#DejaVuSans-74" x="141.357422"/>
     <use xlink:href="#DejaVuSans-68" x="180.566406"/>
     <use xlink:href="#DejaVuSans-20" x="243.945312"/>
     <use xlink:href="#DejaVuSans-53" x="275.732422"/>
     <use xlink:href="#DejaVuSans-75" x="339.208984"/>
     <use xlink:href="#DejaVuSans-62" x="402.587891"/>
     <use xlink:href="#DejaVuSans-2b" x="466.064453"/>
     <use xlink:href="#DejaVuSans-43" x="549.853516"/>
     <use xlink:href="#DejaVuSans-4e" x="619.677734"/>
     <use xlink:href="#DejaVuSans-41" x="694.482422"/>
     <use xlink:href="#DejaVuSans-4d" x="762.890625"/>
     <use xlink:href="#DejaVuSans-45" x="849.169922"/>
     <use xlink:href="#DejaVuSans-20" x="912.353516"/>
     <use xlink:href="#DejaVuSans-73" x="944.140625"/>
     <use xlink:href="#DejaVuSans-63" x="996.240234"/>
     <use xlink:href="#DejaVuSans-72" x="1051.220703"/>
     <use xlink:href="#DejaVuSans-75" x="1092.333984"/>
     <use xlink:href="#DejaVuSans-62" x="1155.712891"/>
     <use xlink:href="#DejaVuSans-62" x="1219.189453"/>
     <use xlink:href="#DejaVuSans-69" x="1282.666016"/>
     <use xlink:href="#DejaVuSans-6e" x="1310.449219"/>
     <use xlink:href="#DejaVuSans-67" x="1373.828125"/>
     <use xlink:href="#DejaVuSans-20" x="1437.304688"/>
     <use xlink:href="#DejaVuSans-2b" x="1469.091797"/>
     <use xlink:href="#DejaVuSans-44" x="1552.880859"/>
     <use xlink:href="#DejaVuSans-65" x="1629.882812"/>
     <use xlink:href="#DejaVuSans-6c" x="1691.40625"/>
     <use xlink:href="#DejaVuSans-61" x="1719.189453"/>
     <use xlink:href="#DejaVuSans-79" x="1780.46875"/>
     <use xlink:href="#DejaVuSans-20" x="1839.648438"/>
     <use xlink:href="#DejaVuSans-28" x="1871.435547"/>
     <use xlink:href="#DejaVuSans-73" x="1910.449219"/>
     <use xlink:href="#DejaVuSans-6c" x="1962.548828"/>
     <use xlink:href="#DejaVuSans-6f" x="1990.332031"/>
     <use xlink:href="#DejaVuSans-77" x="2051.513672"/>
     <use xlink:href="#DejaVuSans-20" x="2133.300781"/>
     <use xlink:href="#DejaVuSans-43" x="2165.087891"/>
     <use xlink:href="#DejaVuSans-4e" x="2234.912109"/>
     <use xlink:href="#DejaVuSans-41" x="2309.716797"/>
     <use xlink:href="#DejaVuSans-4d" x="2378.125"/>
     <use xlink:href="#DejaVuSans-45" x="2464.404297"/>
     <use xlink:href="#DejaVuSans-29" x="2527.587891"/>
    </g>
    <!--  Fixed values : #Del=1, CNAME_length=17 and  with QMIN disabled -->
    <g transform="translate(49.269141 35.472) scale(0.11 -0.11)">
     <defs>
      <path id="DejaVuSans-46" d="M 628 4666 
L 3309 4666 
L 3309 4134 
L 1259 4134 
L 1259 2759 
L 3109 2759 
L 3109 2228 
L 1259 2228 
L 1259 0 
L 628 0 
L 628 4666 
z
" transform="scale(0.015625)"/>
      <path id="DejaVuSans-78" d="M 3513 3500 
L 2247 1797 
L 3578 0 
L 2900 0 
L 1881 1375 
L 863 0 
L 184 0 
L 1544 1831 
L 300 3500 
L 978 3500 
L 1906 2253 
L 2834 3500 
L 3513 3500 
z
" transform="scale(0.015625)"/>
      <path id="DejaVuSans-64" d="M 2906 2969 
L 2906 4863 
L 3481 4863 
L 3481 0 
L 2906 0 
L 2906 525 
Q 2725 213 2448 61 
Q 2172 -91 1784 -91 
Q 1150 -91 751 415 
Q 353 922 353 1747 
Q 353 2572 751 3078 
Q 1150 3584 1784 3584 
Q 2172 3584 2448 3432 
Q 2725 3281 2906 2969 
z
M 947 1747 
Q 947 1113 1208 752 
Q 1469 391 1925 391 
Q 2381 391 2643 752 
Q 2906 1113 2906 1747 
Q 2906 2381 2643 2742 
Q 2381 3103 1925 3103 
Q 1469 3103 1208 2742 
Q 947 2381 947 1747 
z
" transform="scale(0.015625)"/>
      <path id="DejaVuSans-3a" d="M 750 794 
L 1409 794 
L 1409 0 
L 750 0 
L 750 794 
z
M 750 3309 
L 1409 3309 
L 1409 2516 
L 750 2516 
L 750 3309 
z
" transform="scale(0.015625)"/>
      <path id="DejaVuSans-23" d="M 3272 2816 
L 2363 2816 
L 2100 1772 
L 3016 1772 
L 3272 2816 
z
M 2803 4594 
L 2478 3297 
L 3391 3297 
L 3719 4594 
L 4219 4594 
L 3897 3297 
L 4872 3297 
L 4872 2816 
L 3775 2816 
L 3519 1772 
L 4513 1772 
L 4513 1294 
L 3397 1294 
L 3072 0 
L 2572 0 
L 2894 1294 
L 1978 1294 
L 1656 0 
L 1153 0 
L 1478 1294 
L 494 1294 
L 494 1772 
L 1594 1772 
L 1856 2816 
L 850 2816 
L 850 3297 
L 1978 3297 
L 2297 4594 
L 2803 4594 
z
" transform="scale(0.015625)"/>
      <path id="DejaVuSans-3d" d="M 678 2906 
L 4684 2906 
L 4684 2381 
L 678 2381 
L 678 2906 
z
M 678 1631 
L 4684 1631 
L 4684 1100 
L 678 1100 
L 678 1631 
z
" transform="scale(0.015625)"/>
      <path id="DejaVuSans-2c" d="M 750 794 
L 1409 794 
L 1409 256 
L 897 -744 
L 494 -744 
L 750 256 
L 750 794 
z
" transform="scale(0.015625)"/>
      <path id="DejaVuSans-5f" d="M 3263 -1063 
L 3263 -1509 
L -63 -1509 
L -63 -1063 
L 3263 -1063 
z
" transform="scale(0.015625)"/>
      <path id="DejaVuSans-37" d="M 525 4666 
L 3525 4666 
L 3525 4397 
L 1831 0 
L 1172 0 
L 2766 4134 
L 525 4134 
L 525 4666 
z
" transform="scale(0.015625)"/>
      <path id="DejaVuSans-51" d="M 2522 4238 
Q 1834 4238 1429 3725 
Q 1025 3213 1025 2328 
Q 1025 1447 1429 934 
Q 1834 422 2522 422 
Q 3209 422 3611 934 
Q 4013 1447 4013 2328 
Q 4013 3213 3611 3725 
Q 3209 4238 2522 4238 
z
M 3406 84 
L 4238 -825 
L 3475 -825 
L 2784 -78 
Q 2681 -84 2626 -87 
Q 2572 -91 2522 -91 
Q 1538 -91 948 567 
Q 359 1225 359 2328 
Q 359 3434 948 4092 
Q 1538 4750 2522 4750 
Q 3503 4750 4090 4092 
Q 4678 3434 4678 2328 
Q 4678 1516 4351 937 
Q 4025 359 3406 84 
z
" transform="scale(0.015625)"/>
      <path id="DejaVuSans-49" d="M 628 4666 
L 1259 4666 
L 1259 0 
L 628 0 
L 628 4666 
z
" transform="scale(0.015625)"/>
     </defs>
     <use xlink:href="#DejaVuSans-20"/>
     <use xlink:href="#DejaVuSans-46" x="31.787109"/>
     <use xlink:href="#DejaVuSans-69" x="82.056641"/>
     <use xlink:href="#DejaVuSans-78" x="109.839844"/>
     <use xlink:href="#DejaVuSans-65" x="165.894531"/>
     <use xlink:href="#DejaVuSans-64" x="227.417969"/>
     <use xlink:href="#DejaVuSans-20" x="290.894531"/>
     <use xlink:href="#DejaVuSans-76" x="322.681641"/>
     <use xlink:href="#DejaVuSans-61" x="381.861328"/>
     <use xlink:href="#DejaVuSans-6c" x="443.140625"/>
     <use xlink:href="#DejaVuSans-75" x="470.923828"/>
     <use xlink:href="#DejaVuSans-65" x="534.302734"/>
     <use xlink:href="#DejaVuSans-73" x="595.826172"/>
     <use xlink:href="#DejaVuSans-20" x="647.925781"/>
     <use xlink:href="#DejaVuSans-3a" x="679.712891"/>
     <use xlink:href="#DejaVuSans-20" x="713.404297"/>
     <use xlink:href="#DejaVuSans-23" x="745.191406"/>
     <use xlink:href="#DejaVuSans-44" x="828.980469"/>
     <use xlink:href="#DejaVuSans-65" x="905.982422"/>
     <use xlink:href="#DejaVuSans-6c" x="967.505859"/>
     <use xlink:href="#DejaVuSans-3d" x="995.289062"/>
     <use xlink:href="#DejaVuSans-31" x="1079.078125"/>
     <use xlink:href="#DejaVuSans-2c" x="1142.701172"/>
     <use xlink:href="#DejaVuSans-20" x="1174.488281"/>
     <use xlink:href="#DejaVuSans-43" x="1206.275391"/>
     <use xlink:href="#DejaVuSans-4e" x="1276.099609"/>
     <use xlink:href="#DejaVuSans-41" x="1350.904297"/>
     <use xlink:href="#DejaVuSans-4d" x="1419.3125"/>
     <use xlink:href="#DejaVuSans-45" x="1505.591797"/>
     <use xlink:href="#DejaVuSans-5f" x="1568.775391"/>
     <use xlink:href="#DejaVuSans-6c" x="1618.775391"/>
     <use xlink:href="#DejaVuSans-65" x="1646.558594"/>
     <use xlink:href="#DejaVuSans-6e" x="1708.082031"/>
     <use xlink:href="#DejaVuSans-67" x="1771.460938"/>
     <use xlink:href="#DejaVuSans-74" x="1834.9375"/>
     <use xlink:href="#DejaVuSans-68" x="1874.146484"/>
     <use xlink:href="#DejaVuSans-3d" x="1937.525391"/>
     <use xlink:href="#DejaVuSans-31" x="2021.314453"/>
     <use xlink:href="#DejaVuSans-37" x="2084.9375"/>
     <use xlink:href="#DejaVuSans-20" x="2148.560547"/>
     <use xlink:href="#DejaVuSans-61" x="2180.347656"/>
     <use xlink:href="#DejaVuSans-6e" x="2241.626953"/>
     <use xlink:href="#DejaVuSans-64" x="2305.005859"/>
     <use xlink:href="#DejaVuSans-20" x="2368.482422"/>
     <use xlink:href="#DejaVuSans-20" x="2400.269531"/>
     <use xlink:href="#DejaVuSans-77" x="2432.056641"/>
     <use xlink:href="#DejaVuSans-69" x="2513.84375"/>
     <use xlink:href="#DejaVuSans-74" x="2541.626953"/>
     <use xlink:href="#DejaVuSans-68" x="2580.835938"/>
     <use xlink:href="#DejaVuSans-20" x="2644.214844"/>
     <use xlink:href="#DejaVuSans-51" x="2676.001953"/>
     <use xlink:href="#DejaVuSans-4d" x="2754.712891"/>
     <use xlink:href="#DejaVuSans-49" x="2840.992188"/>
     <use xlink:href="#DejaVuSans-4e" x="2870.484375"/>
     <use xlink:href="#DejaVuSans-20" x="2945.289062"/>
     <use xlink:href="#DejaVuSans-64" x="2977.076172"/>
     <use xlink:href="#DejaVuSans-69" x="3040.552734"/>
     <use xlink:href="#DejaVuSans-73" x="3068.335938"/>
     <use xlink:href="#DejaVuSans-61" x="3120.435547"/>
     <use xlink:href="#DejaVuSans-62" x="3181.714844"/>
     <use xlink:href="#DejaVuSans-6c" x="3245.191406"/>
     <use xlink:href="#DejaVuSans-65" x="3272.974609"/>
     <use xlink:href="#DejaVuSans-64" x="3334.498047"/>
    </g>
   </g>
   <g id="legend_1">
    <g id="patch_7">
     <path d="M 64.6 109.297 
L 178.126563 109.297 
Q 180.126563 109.297 180.126563 107.297 
L 180.126563 48.472 
Q 180.126563 46.472 178.126563 46.472 
L 64.6 46.472 
Q 62.6 46.472 62.6 48.472 
L 62.6 107.297 
Q 62.6 109.297 64.6 109.297 
z
" style="fill: #ffffff; opacity: 0.8; stroke: #cccccc; stroke-linejoin: miter"/>
    </g>
    <g id="line2d_33">
     <path d="M 66.6 54.570437 
L 76.6 54.570437 
L 86.6 54.570437 
" style="fill: none; stroke: #1f77b4; stroke-width: 1.5; stroke-linecap: square"/>
     <g>
      <use xlink:href="#md0bbdb0f84" x="76.6" y="54.570437" style="fill: #1f77b4; stroke: #1f77b4"/>
     </g>
    </g>
    <g id="text_18">
     <!-- unbound1_10_0 -->
     <g transform="translate(94.6 58.070437) scale(0.1 -0.1)">
      <use xlink:href="#DejaVuSans-75"/>
      <use xlink:href="#DejaVuSans-6e" x="63.378906"/>
      <use xlink:href="#DejaVuSans-62" x="126.757812"/>
      <use xlink:href="#DejaVuSans-6f" x="190.234375"/>
      <use xlink:href="#DejaVuSans-75" x="251.416016"/>
      <use xlink:href="#DejaVuSans-6e" x="314.794922"/>
      <use xlink:href="#DejaVuSans-64" x="378.173828"/>
      <use xlink:href="#DejaVuSans-31" x="441.650391"/>
      <use xlink:href="#DejaVuSans-5f" x="505.273438"/>
      <use xlink:href="#DejaVuSans-31" x="555.273438"/>
      <use xlink:href="#DejaVuSans-30" x="618.896484"/>
      <use xlink:href="#DejaVuSans-5f" x="682.519531"/>
      <use xlink:href="#DejaVuSans-30" x="732.519531"/>
     </g>
    </g>
    <g id="line2d_34">
     <path d="M 66.6 69.526687 
L 76.6 69.526687 
L 86.6 69.526687 
" style="fill: none; stroke: #ff7f0e; stroke-width: 1.5; stroke-linecap: square"/>
     <g>
      <use xlink:href="#mfd3ced3e0d" x="76.6" y="69.526687" style="fill: #ff7f0e; stroke: #ff7f0e"/>
     </g>
    </g>
    <g id="text_19">
     <!-- unbound1_16_0 -->
     <g transform="translate(94.6 73.026687) scale(0.1 -0.1)">
      <use xlink:href="#DejaVuSans-75"/>
      <use xlink:href="#DejaVuSans-6e" x="63.378906"/>
      <use xlink:href="#DejaVuSans-62" x="126.757812"/>
      <use xlink:href="#DejaVuSans-6f" x="190.234375"/>
      <use xlink:href="#DejaVuSans-75" x="251.416016"/>
      <use xlink:href="#DejaVuSans-6e" x="314.794922"/>
      <use xlink:href="#DejaVuSans-64" x="378.173828"/>
      <use xlink:href="#DejaVuSans-31" x="441.650391"/>
      <use xlink:href="#DejaVuSans-5f" x="505.273438"/>
      <use xlink:href="#DejaVuSans-31" x="555.273438"/>
      <use xlink:href="#DejaVuSans-36" x="618.896484"/>
      <use xlink:href="#DejaVuSans-5f" x="682.519531"/>
      <use xlink:href="#DejaVuSans-30" x="732.519531"/>
     </g>
    </g>
    <g id="line2d_35">
     <path d="M 66.6 84.482937 
L 76.6 84.482937 
L 86.6 84.482937 
" style="fill: none; stroke: #2ca02c; stroke-width: 1.5; stroke-linecap: square"/>
     <g>
      <use xlink:href="#m628e91ae43" x="76.6" y="84.482937" style="fill: #2ca02c; stroke: #2ca02c"/>
     </g>
    </g>
    <g id="text_20">
     <!-- powerDNS4_7_0 -->
     <g transform="translate(94.6 87.982937) scale(0.1 -0.1)">
      <defs>
       <path id="DejaVuSans-70" d="M 1159 525 
L 1159 -1331 
L 581 -1331 
L 581 3500 
L 1159 3500 
L 1159 2969 
Q 1341 3281 1617 3432 
Q 1894 3584 2278 3584 
Q 2916 3584 3314 3078 
Q 3713 2572 3713 1747 
Q 3713 922 3314 415 
Q 2916 -91 2278 -91 
Q 1894 -91 1617 61 
Q 1341 213 1159 525 
z
M 3116 1747 
Q 3116 2381 2855 2742 
Q 2594 3103 2138 3103 
Q 1681 3103 1420 2742 
Q 1159 2381 1159 1747 
Q 1159 1113 1420 752 
Q 1681 391 2138 391 
Q 2594 391 2855 752 
Q 3116 1113 3116 1747 
z
" transform="scale(0.015625)"/>
      </defs>
      <use xlink:href="#DejaVuSans-70"/>
      <use xlink:href="#DejaVuSans-6f" x="63.476562"/>
      <use xlink:href="#DejaVuSans-77" x="124.658203"/>
      <use xlink:href="#DejaVuSans-65" x="206.445312"/>
      <use xlink:href="#DejaVuSans-72" x="267.96875"/>
      <use xlink:href="#DejaVuSans-44" x="309.082031"/>
      <use xlink:href="#DejaVuSans-4e" x="386.083984"/>
      <use xlink:href="#DejaVuSans-53" x="460.888672"/>
      <use xlink:href="#DejaVuSans-34" x="524.365234"/>
      <use xlink:href="#DejaVuSans-5f" x="587.988281"/>
      <use xlink:href="#DejaVuSans-37" x="637.988281"/>
      <use xlink:href="#DejaVuSans-5f" x="701.611328"/>
      <use xlink:href="#DejaVuSans-30" x="751.611328"/>
     </g>
    </g>
    <g id="line2d_36">
     <path d="M 66.6 99.439187 
L 76.6 99.439187 
L 86.6 99.439187 
" style="fill: none; stroke: #d62728; stroke-width: 1.5; stroke-linecap: square"/>
     <g>
      <use xlink:href="#m0b239d7485" x="76.6" y="99.439187" style="fill: #d62728; stroke: #d62728"/>
     </g>
    </g>
    <g id="text_21">
     <!-- bind9_18_4 -->
     <g transform="translate(94.6 102.939187) scale(0.1 -0.1)">
      <defs>
       <path id="DejaVuSans-39" d="M 703 97 
L 703 672 
Q 941 559 1184 500 
Q 1428 441 1663 441 
Q 2288 441 2617 861 
Q 2947 1281 2994 2138 
Q 2813 1869 2534 1725 
Q 2256 1581 1919 1581 
Q 1219 1581 811 2004 
Q 403 2428 403 3163 
Q 403 3881 828 4315 
Q 1253 4750 1959 4750 
Q 2769 4750 3195 4129 
Q 3622 3509 3622 2328 
Q 3622 1225 3098 567 
Q 2575 -91 1691 -91 
Q 1453 -91 1209 -44 
Q 966 3 703 97 
z
M 1959 2075 
Q 2384 2075 2632 2365 
Q 2881 2656 2881 3163 
Q 2881 3666 2632 3958 
Q 2384 4250 1959 4250 
Q 1534 4250 1286 3958 
Q 1038 3666 1038 3163 
Q 1038 2656 1286 2365 
Q 1534 2075 1959 2075 
z
" transform="scale(0.015625)"/>
      </defs>
      <use xlink:href="#DejaVuSans-62"/>
      <use xlink:href="#DejaVuSans-69" x="63.476562"/>
      <use xlink:href="#DejaVuSans-6e" x="91.259766"/>
      <use xlink:href="#DejaVuSans-64" x="154.638672"/>
      <use xlink:href="#DejaVuSans-39" x="218.115234"/>
      <use xlink:href="#DejaVuSans-5f" x="281.738281"/>
      <use xlink:href="#DejaVuSans-31" x="331.738281"/>
      <use xlink:href="#DejaVuSans-38" x="395.361328"/>
      <use xlink:href="#DejaVuSans-5f" x="458.984375"/>
      <use xlink:href="#DejaVuSans-34" x="508.984375"/>
     </g>
    </g>
   </g>
  </g>
 </g>
 <defs>
  <clipPath id="p076d2fb50f">
   <rect x="57.6" y="41.472" width="357.12" height="266.112"/>
  </clipPath>
 </defs>
</svg>
